<svg width="14" height="12" viewBox="0 0 14 12" fill="none" xmlns="http://www.w3.org/2000/svg">
<path d="M0.833374 3.60062V3.60053C0.833231 2.76832 1.16771 1.97099 1.76154 1.38795C2.35538 0.804911 3.15871 0.485121 3.99078 0.500532L3.99078 0.500674L4.0027 0.500611C5.00425 0.495292 5.95993 0.92004 6.62713 1.66703L7.00004 2.08453L7.37295 1.66703C8.04015 0.92004 8.99583 0.495292 9.99739 0.500611L9.99739 0.500753L10.0093 0.500532C10.8414 0.485121 11.6447 0.804911 12.2385 1.38795C12.8324 1.97099 13.1669 2.76832 13.1667 3.60053V3.60062C13.1667 5.18268 12.2225 6.62695 10.8822 7.98891C10.2186 8.66333 9.47694 9.2986 8.74206 9.90444C8.5332 10.0766 8.3237 10.2474 8.11664 10.4161C7.72968 10.7315 7.35127 11.0399 7.00161 11.3377C6.63458 11.0224 6.23593 10.6965 5.82866 10.3635C5.64037 10.2095 5.45024 10.054 5.26054 9.89744C4.52546 9.2906 3.78358 8.65606 3.11942 7.98274C1.77832 6.62315 0.833374 5.18352 0.833374 3.60062Z" fill="white" stroke="#262626"/>
</svg>
