<svg width="18" height="18" viewBox="0 0 18 18" fill="none" xmlns="http://www.w3.org/2000/svg">
<path d="M12.5 11.0006H11.71L11.43 10.7306C12.63 9.33063 13.25 7.42063 12.91 5.39063C12.44 2.61063 10.12 0.390626 7.32001 0.0506256C3.09001 -0.469374 -0.469985 3.09063 0.0500152 7.32063C0.390015 10.1206 2.61002 12.4406 5.39002 12.9106C7.42002 13.2506 9.33002 12.6306 10.73 11.4306L11 11.7106V12.5006L15.25 16.7506C15.66 17.1606 16.33 17.1606 16.74 16.7506C17.15 16.3406 17.15 15.6706 16.74 15.2606L12.5 11.0006ZM6.50002 11.0006C4.01002 11.0006 2.00002 8.99063 2.00002 6.50063C2.00002 4.01063 4.01002 2.00063 6.50002 2.00063C8.99002 2.00063 11 4.01063 11 6.50063C11 8.99063 8.99002 11.0006 6.50002 11.0006Z" fill="#161616"/>
</svg>
