<svg width="16" height="23" viewBox="0 0 16 23" fill="none" xmlns="http://www.w3.org/2000/svg">
<path d="M11.0002 9H5.00024C4.45024 9 4.00024 9.45 4.00024 10V22C4.00024 22.55 4.45024 23 5.00024 23H11.0002C11.5502 23 12.0002 22.55 12.0002 22V10C12.0002 9.45 11.5502 9 11.0002 9ZM8.00024 15C6.90024 15 6.00024 14.1 6.00024 13C6.00024 11.9 6.90024 11 8.00024 11C9.10024 11 10.0002 11.9 10.0002 13C10.0002 14.1 9.10024 15 8.00024 15ZM3.82024 6.82C4.17024 7.17 4.72024 7.2 5.12024 6.92C5.93024 6.34 6.93024 6 8.00024 6C9.07024 6 10.0702 6.34 10.8802 6.91C11.2802 7.19 11.8302 7.17 12.1802 6.82C12.6102 6.39 12.5702 5.68 12.0902 5.32C10.9402 4.49 9.53024 4 8.00024 4C6.47024 4 5.06024 4.49 3.91024 5.32C3.42024 5.67 3.39024 6.39 3.82024 6.82ZM8.00024 0C5.36024 0 2.94024 0.93 1.05024 2.47C0.590244 2.85 0.550243 3.54 0.970243 3.96C1.33024 4.32 1.90024 4.35 2.29024 4.03C3.84024 2.77 5.83024 2 8.00024 2C10.1702 2 12.1602 2.77 13.7002 4.04C14.0902 4.36 14.6602 4.33 15.0202 3.97C15.4402 3.55 15.4002 2.86 14.9402 2.48C13.0602 0.93 10.6402 0 8.00024 0Z" fill="#161616"/>
</svg>
