<svg width="22" height="18" viewBox="0 0 22 18" fill="none" xmlns="http://www.w3.org/2000/svg">
<path d="M16.5 0.5C14.55 0.5 12.45 0.9 11 2C9.55 0.9 7.45 0.5 5.5 0.5C4.05 0.5 2.51 0.72 1.22 1.29C0.49 1.62 0 2.33 0 3.14V14.42C0 15.72 1.22 16.68 2.48 16.36C3.46 16.11 4.5 16 5.5 16C7.06 16 8.72 16.26 10.06 16.92C10.66 17.22 11.34 17.22 11.93 16.92C13.27 16.25 14.93 16 16.49 16C17.49 16 18.53 16.11 19.51 16.36C20.77 16.69 21.99 15.73 21.99 14.42V3.14C21.99 2.33 21.5 1.62 20.77 1.29C19.49 0.72 17.95 0.5 16.5 0.5ZM20 13.23C20 13.86 19.42 14.32 18.8 14.21C18.05 14.07 17.27 14.01 16.5 14.01C14.8 14.01 12.35 14.66 11 15.51V4C12.35 3.15 14.8 2.5 16.5 2.5C17.42 2.5 18.33 2.59 19.2 2.78C19.66 2.88 20 3.29 20 3.76V13.23Z" fill="#161616"/>
</svg>
