<svg width="10" height="10" viewBox="0 0 10 10" fill="none" xmlns="http://www.w3.org/2000/svg">
<path d="M9.00016 5.66634H5.66683V8.99967C5.66683 9.36634 5.36683 9.66634 5.00016 9.66634C4.6335 9.66634 4.3335 9.36634 4.3335 8.99967V5.66634H1.00016C0.633496 5.66634 0.333496 5.36634 0.333496 4.99967C0.333496 4.63301 0.633496 4.33301 1.00016 4.33301H4.3335V0.999674C4.3335 0.633008 4.6335 0.333008 5.00016 0.333008C5.36683 0.333008 5.66683 0.633008 5.66683 0.999674V4.33301H9.00016C9.36683 4.33301 9.66683 4.63301 9.66683 4.99967C9.66683 5.36634 9.36683 5.66634 9.00016 5.66634Z" fill="#161616"/>
</svg>
