<svg width="18" height="17" viewBox="0 0 18 17" fill="none" xmlns="http://www.w3.org/2000/svg">
<path d="M16.6498 6.04L11.8098 5.62L9.91983 1.17C9.57983 0.36 8.41983 0.36 8.07983 1.17L6.18983 5.63L1.35983 6.04C0.479829 6.11 0.119828 7.21 0.789828 7.79L4.45983 10.97L3.35983 15.69C3.15983 16.55 4.08983 17.23 4.84983 16.77L8.99983 14.27L13.1498 16.78C13.9098 17.24 14.8398 16.56 14.6398 15.7L13.5398 10.97L17.2098 7.79C17.8798 7.21 17.5298 6.11 16.6498 6.04ZM8.99983 12.4V3.1L10.7098 7.14L15.0898 7.52L11.7698 10.4L12.7698 14.68L8.99983 12.4Z" fill="#161616"/>
</svg>
