<svg width="46" height="50" viewBox="0 0 46 50" fill="none" xmlns="http://www.w3.org/2000/svg">
<path d="M39.4812 24.6374V23.1203C39.4812 21.4104 39.2169 19.7306 38.6968 18.1186L44.5436 13.4101C45.1643 12.9103 45.3941 12.1017 45.1292 11.3501C44.8642 10.5985 44.178 10.1129 43.3811 10.1129H40.8637L44.74 3.2783C45.1299 2.59106 45.1251 1.77305 44.7274 1.09026C44.3297 0.407672 43.6205 0 42.8303 0H35.6674C34.8334 0 34.0587 0.484494 33.6936 1.2344L30.2002 8.41054C28.955 7.81586 27.6408 7.38274 26.2831 7.12188C25.2717 6.92706 24.2308 6.82826 23.1891 6.82826C19.3019 6.82826 15.538 8.21996 12.5908 10.7471C12.2795 11.014 12.2436 11.4827 12.5105 11.794C12.6573 11.9652 12.8652 12.0532 13.0744 12.0532C13.2455 12.0532 13.4174 11.9943 13.5574 11.8743C16.2355 9.57782 19.6561 8.31312 23.189 8.31312C24.1366 8.31312 25.0831 8.40291 26.0024 8.58002C27.2321 8.81633 28.4216 9.20925 29.5495 9.7469L28.309 12.2953C28.0319 12.8644 28.0668 13.5247 28.4024 14.0613C28.7381 14.5981 29.3164 14.9185 29.9495 14.9185H32.3271L30.1574 20.6766C29.8663 21.4491 30.1199 22.2934 30.7886 22.7775C31.1097 23.01 31.4799 23.1256 31.8492 23.1256C32.2488 23.1256 32.6473 22.9902 32.9815 22.7212L37.4488 19.1236C37.8118 20.4191 37.9959 21.7591 37.9959 23.1204V24.6672C32.9093 24.6004 25.9011 23.8849 20.0058 21.0169C16.3199 19.2237 14.8002 17.4115 14.7869 17.3954C14.5886 17.1515 14.2583 17.0589 13.9623 17.164C13.666 17.2691 13.4683 17.5494 13.4683 17.8636C13.4683 19.1612 12.8271 20.5932 11.663 21.8957C10.7592 22.907 9.60002 23.7589 8.38275 24.3236V23.1203C8.38275 19.8451 9.43014 16.7415 11.4118 14.1451C11.6606 13.8191 11.598 13.3531 11.272 13.1044C10.9461 12.8556 10.4801 12.9183 10.2313 13.2442C8.05051 16.1018 6.89778 19.5169 6.89778 23.1204V24.6419C6.77334 24.6376 6.66405 24.6347 6.5996 24.6347C3.3806 24.6347 0.761719 27.253 0.761719 30.4715C0.761719 33.6906 3.3806 36.3094 6.5996 36.3094C6.7676 36.3094 6.93531 36.3005 7.10241 36.2862C8.34147 44.0488 15.0827 50 23.1888 50C24.2306 50 25.2716 49.9011 26.2825 49.7064C30.6021 48.876 34.4594 46.273 36.8655 42.5651C37.0888 42.2211 36.9909 41.7613 36.6469 41.5381C36.3029 41.3148 35.8431 41.4129 35.6199 41.7568C33.4325 45.1276 29.9271 47.4936 26.0018 48.2482C25.0829 48.4254 24.1365 48.5151 23.1888 48.5151C15.0248 48.5151 8.38285 41.8732 8.38285 33.7092V25.9371C10.0219 25.3037 11.5642 24.235 12.7703 22.8854C13.7482 21.7911 14.4209 20.5964 14.7406 19.4113C15.6288 20.1706 17.0871 21.236 19.2436 22.2971C22.717 24.0063 28.7641 26.0369 37.996 26.1521V33.7092C37.996 35.6588 37.6232 37.5532 36.8878 39.3398C36.7317 39.7191 36.9126 40.1529 37.2918 40.309C37.3843 40.347 37.48 40.3651 37.5742 40.3651C37.8661 40.3651 38.1431 40.1917 38.261 39.905C38.7392 38.7432 39.0769 37.5399 39.2743 36.3078C39.3062 36.3082 39.338 36.3095 39.3699 36.3095C42.5884 36.3095 45.2068 33.6907 45.2068 30.4716C45.207 27.2903 42.6484 24.6971 39.4812 24.6374ZM32.0503 21.5645C31.8836 21.6988 31.7338 21.6284 31.6595 21.5746C31.5851 21.5208 31.4716 21.4005 31.547 21.2003L34.0951 14.438C34.181 14.2099 34.1495 13.9542 34.0109 13.7537C33.8722 13.5534 33.6441 13.4337 33.4003 13.4337H29.9495C29.7857 13.4337 29.6987 13.3337 29.6615 13.2741C29.6243 13.2145 29.5725 13.0926 29.6442 12.9454L35.0287 1.88442C35.1468 1.64178 35.3976 1.48496 35.6675 1.48496H42.8304C43.199 1.48496 43.3824 1.73167 43.4442 1.83779C43.506 1.94392 43.6301 2.22527 43.4483 2.54572L38.9431 10.4891C38.8127 10.719 38.8144 11.0007 38.9474 11.2291C39.0804 11.4575 39.3247 11.5979 39.589 11.5979H43.3811C43.6165 11.5979 43.7026 11.7699 43.7286 11.8439C43.7548 11.9178 43.7956 12.1058 43.6122 12.2535L32.0503 21.5645ZM6.5999 34.8245C4.19971 34.8245 2.24698 32.8717 2.24698 30.4715C2.24698 28.0718 4.19971 26.1196 6.5999 26.1196C6.65346 26.1196 6.76414 26.1229 6.89808 26.1277V28.6176C5.88336 28.5957 4.61223 28.9452 4.01072 30.3286C3.84718 30.7046 4.01953 31.1421 4.39562 31.3055C4.49205 31.3475 4.59243 31.3673 4.69123 31.3673C4.97793 31.3673 5.25096 31.2003 5.37253 30.9206C5.69091 30.1882 6.39636 30.0763 6.89808 30.1V33.7091C6.89808 34.0791 6.91164 34.4461 6.9361 34.8101C6.82433 34.8187 6.71226 34.8245 6.5999 34.8245ZM39.4431 34.8226C39.4679 34.4534 39.4812 34.0822 39.4812 33.7091V30.1C39.9828 30.0763 40.6874 30.1887 41.0057 30.9206C41.1273 31.2003 41.4003 31.3673 41.687 31.3673C41.7858 31.3673 41.8863 31.3474 41.9826 31.3055C42.3587 31.1421 42.5311 30.7046 42.3675 30.3286C41.7663 28.9457 40.4958 28.596 39.4812 28.6176V26.1224C41.8296 26.1817 43.722 28.1091 43.722 30.4715C43.722 32.8472 41.8091 34.7833 39.4431 34.8226Z" fill="black"/>
</svg>
