<svg width="37" height="37" viewBox="0 0 37 37" fill="none" xmlns="http://www.w3.org/2000/svg">
<g clip-path="url(#clip0_0_1276)">
<path d="M29.5221 0.5H21.6171C21.3258 0.5 21.0898 0.736109 21.0898 1.02734C21.0898 1.31858 21.3258 1.55469 21.6171 1.55469H29.5221C29.6592 1.55469 29.7708 1.66627 29.7708 1.80338V5.06659C29.7708 13.9499 28.9922 22.8906 27.4565 31.6401L26.9225 34.6824C26.8449 35.1244 26.4628 35.4453 26.0139 35.4453H10.9858C10.5369 35.4453 10.1548 35.1244 10.0773 34.6824L9.54332 31.6401C8.00755 22.8903 7.22891 13.9498 7.22891 5.06659V1.80338C7.22891 1.66627 7.3405 1.55469 7.47761 1.55469H19.5077C19.799 1.55469 20.0351 1.31858 20.0351 1.02734C20.0351 0.736109 19.799 0.5 19.5077 0.5H7.47761C6.75887 0.5 6.17422 1.08472 6.17422 1.80338V5.06659C6.17422 14.0107 6.95821 23.0127 8.50445 31.8223L9.0384 34.8647C9.20476 35.8123 10.0237 36.5 10.9858 36.5H26.0139C26.976 36.5 27.795 35.8122 27.9612 34.8647L28.4952 31.8223C30.0415 23.0128 30.8255 14.0109 30.8255 5.06659V1.80338C30.8255 1.08472 30.2409 0.5 29.5221 0.5V0.5Z" fill="white"/>
<path d="M11.8129 12.0868C11.8129 11.7956 11.5768 11.5594 11.2855 11.5594H10.2426C9.95844 11.5594 9.68317 11.6776 9.48728 11.8835C9.29167 12.0891 9.18767 12.3695 9.20188 12.6527C9.51568 18.91 10.2211 25.1946 11.2983 31.332L11.5776 32.9231C11.6529 33.352 12.0236 33.6632 12.459 33.6632H24.5403C24.9759 33.6632 25.3466 33.3519 25.4218 32.923L25.7011 31.3319C26.7783 25.194 27.4837 18.9094 27.7974 12.6526C27.8116 12.3694 27.7076 12.089 27.512 11.8834C27.3161 11.6776 27.0409 11.5594 26.7567 11.5594H13.3949C13.1037 11.5594 12.8676 11.7956 12.8676 12.0868C12.8676 12.378 13.1037 12.6141 13.3949 12.6141H26.7433C26.4313 18.8227 25.7311 25.0592 24.6622 31.1496L24.406 32.6086H12.5931L12.337 31.1497C11.2682 25.0598 10.5679 18.8233 10.2559 12.6142H11.2855C11.5768 12.6141 11.8129 12.378 11.8129 12.0868Z" fill="white"/>
</g>
<defs>
<clipPath id="clip0_0_1276">
<rect width="36" height="36" fill="white" transform="translate(0.5 0.5)"/>
</clipPath>
</defs>
</svg>
