<svg width="40" height="40" viewBox="0 0 40 40" fill="none" xmlns="http://www.w3.org/2000/svg">
<path d="M9.98194 7.46739C10.2767 7.46739 10.5153 7.22859 10.5153 6.93405V5.86739C10.5153 5.57286 10.2767 5.33406 9.98194 5.33406C9.68714 5.33406 9.44861 5.57286 9.44861 5.86739V6.93405C9.44861 7.22859 9.68714 7.46739 9.98194 7.46739Z" fill="white"/>
<path d="M9.98194 10.6674C10.2767 10.6674 10.5153 10.4286 10.5153 10.1341V9.06741C10.5153 8.77288 10.2767 8.53408 9.98194 8.53408C9.68714 8.53408 9.44861 8.77288 9.44861 9.06741V10.1341C9.44861 10.4286 9.68714 10.6674 9.98194 10.6674Z" fill="white"/>
<path d="M8.91521 7.4674H7.84855C7.55375 7.4674 7.31522 7.7062 7.31522 8.00073C7.31522 8.29527 7.55375 8.53407 7.84855 8.53407H8.91521C9.21001 8.53407 9.44855 8.29527 9.44855 8.00073C9.44855 7.7062 9.21001 7.4674 8.91521 7.4674Z" fill="white"/>
<path d="M11.0486 8.53407H12.1153C12.4101 8.53407 12.6486 8.29527 12.6486 8.00073C12.6486 7.7062 12.4101 7.4674 12.1153 7.4674H11.0486C10.7538 7.4674 10.5153 7.7062 10.5153 8.00073C10.5153 8.29527 10.7538 8.53407 11.0486 8.53407Z" fill="white"/>
<path d="M6.66663 15.2506C6.3517 15.2506 6.0965 15.5059 6.0965 15.8207C6.0965 16.1355 6.35183 16.391 6.66663 16.391C6.98143 16.391 7.23677 16.1356 7.23677 15.8207C7.23677 15.5058 6.98157 15.2506 6.66663 15.2506Z" fill="white"/>
<path d="M33.3332 29.1174C33.0182 29.1174 32.763 29.3728 32.763 29.6876C32.763 30.0024 33.0184 30.2579 33.3332 30.2579C33.648 30.2579 33.9033 30.0025 33.9033 29.6876C33.9033 29.3726 33.6481 29.1174 33.3332 29.1174Z" fill="white"/>
<path d="M33.6835 17.8747C33.5955 16.0156 33.0532 14.1695 32.1158 12.5356C31.9694 12.2799 31.6434 12.1916 31.3876 12.3384C31.1324 12.4851 31.0439 12.8108 31.1907 13.0663C32.0443 14.554 32.5376 16.2343 32.6178 17.9248C32.6563 18.7436 32.6058 19.5628 32.4667 20.3597C32.1328 22.2791 31.2902 24.068 30.0303 25.5332C29.3928 26.2741 28.6486 27.5928 28.6486 28.8704V34.6676H19.4507L18.6566 31.8871L23.9444 30.9257C24.1595 30.8867 24.3294 30.72 24.372 30.5055L24.9048 27.8388C24.9627 27.55 24.7751 27.2691 24.4866 27.2115C24.1948 27.1539 23.9168 27.3412 23.859 27.63L23.397 29.9412L17.9266 30.9357L13.7231 31.0432C13.57 31.0432 13.4419 30.9177 13.4252 30.7591L13.1447 27.5771L15.5132 26.6297C15.7507 26.5347 15.8872 26.2847 15.8392 26.0336C15.7908 25.7825 15.571 25.6011 15.3152 25.6011H12.9704L12.8751 24.5201C12.8558 24.3032 12.7068 24.1199 12.4986 24.0565L10.7923 23.5404C10.6814 23.5149 10.622 23.4344 10.597 23.3885C10.5563 23.3156 10.5434 23.2307 10.5595 23.1489L13.5688 18.4192C13.6735 18.2549 13.6798 18.0468 13.586 17.876C13.4923 17.7057 13.3131 17.5997 13.1188 17.5997H13.1184C13.1179 17.5997 13.1179 17.5997 13.1174 17.5997C12.9908 17.5997 12.87 17.5453 12.7856 17.45C12.7383 17.3967 12.6616 17.2828 12.6815 17.1213C12.8618 15.6511 13.2971 14.2052 13.907 13.0503C14.045 12.7899 13.945 12.4672 13.6846 12.3295C13.4242 12.1915 13.1012 12.2915 12.9643 12.5519C12.2846 13.8373 11.8211 15.3727 11.6231 16.9917C11.5715 17.4128 11.7043 17.8379 11.9876 18.1576C12.0798 18.2617 12.1855 18.3519 12.3007 18.4259L9.61845 22.6416C9.59605 22.6768 9.57778 22.7143 9.56431 22.7539C9.43311 23.1345 9.46898 23.5544 9.66431 23.9057C9.85391 24.2479 10.1779 24.4935 10.5184 24.5705L11.8444 24.9727L12.3632 30.8609C12.4372 31.5729 13.0216 32.1096 13.7367 32.1096L17.5826 32.0115L18.5356 35.3476C18.6012 35.5765 18.8106 35.7343 19.0487 35.7343H29.182C29.4768 35.7343 29.7154 35.4955 29.7154 35.2009V28.8704C29.7154 27.9529 30.2976 26.8579 30.8388 26.2285C32.2248 24.6179 33.1508 22.6515 33.518 20.5425C33.6699 19.6692 33.7256 18.7716 33.6835 17.8747Z" fill="white"/>
<path d="M13.725 18.8479C13.862 19.5801 15.0824 19.7343 15.3168 19.7343C15.7288 19.7343 16.925 19.4717 16.925 18.6676C16.925 18.3731 16.6865 18.1343 16.3917 18.1343C16.1553 18.1343 15.9542 18.2884 15.8844 18.5017C15.7646 18.5763 15.4813 18.6676 15.3166 18.6676C15.15 18.6676 14.8458 18.5785 14.7254 18.5103C14.6218 18.3032 14.3932 18.1813 14.1505 18.2253C13.8614 18.2796 13.6702 18.5583 13.725 18.8479Z" fill="white"/>
<path d="M18.4224 14.0511C18.7022 14.1066 18.9834 14.1344 19.2646 14.1344C19.6068 14.1344 19.9495 14.0892 20.2898 14.0071C20.432 14.0779 20.5716 14.155 20.7198 14.2112C21.1176 14.3623 21.5947 14.4766 22.0286 14.4766C22.218 14.4766 22.3972 14.4511 22.5602 14.401C22.7207 14.4496 22.9026 14.4771 23.1051 14.4771C23.5927 14.4771 24.1811 14.3271 24.7696 14.0432C25.0508 14.0991 25.3332 14.1342 25.6155 14.1342C25.8967 14.1342 26.178 14.1066 26.4571 14.0511C28.591 13.6268 30.0535 11.0602 30.115 10.9514C30.2472 10.7152 30.1822 10.417 29.9628 10.2582C29.9166 10.2251 28.8916 9.49671 27.5976 9.12124C27.5946 8.09684 27.4167 7.29977 27.4019 7.23604C27.3368 6.95377 27.0576 6.77671 26.7732 6.83391C26.7275 6.84351 25.7647 7.04884 24.7058 7.58244C24.122 5.84364 23.0288 4.53031 22.966 4.45604C22.8671 4.33911 22.7223 4.27031 22.5691 4.26724C22.4227 4.25737 22.2691 4.32711 22.1655 4.44017C22.0982 4.51351 20.9419 5.79671 20.303 7.50791C19.2764 7.00217 18.3634 6.80364 18.3192 6.79417C18.0338 6.73457 17.7536 6.91364 17.689 7.19751C17.6743 7.26111 17.5007 8.04764 17.4974 9.06377C16.1038 9.41484 14.9668 10.2219 14.9166 10.2582C14.6972 10.417 14.6322 10.7152 14.7644 10.9514C14.826 11.0603 16.2886 13.627 18.4224 14.0511ZM28.9162 10.8543C28.3938 11.6119 27.3771 12.7806 26.249 13.0048C26.2338 13.0079 26.2184 13.0086 26.2032 13.0114C26.4146 12.796 26.6167 12.5652 26.7927 12.3019C27.2151 11.6698 27.4292 10.9307 27.5272 10.215C28.0892 10.4038 28.5867 10.6603 28.9162 10.8543ZM26.4547 8.02511C26.5683 8.88737 26.663 10.5764 25.9063 11.7092C25.3736 12.5058 24.6819 12.9575 24.0874 13.193C24.6502 12.315 25.0678 11.0276 25.0678 9.62764C25.0678 9.29551 25.0363 8.96724 24.981 8.64684C25.5272 8.34937 26.0708 8.14511 26.4547 8.02511ZM22.5422 5.66884C23.0848 6.45551 24.001 8.02164 24.001 9.62764C24.001 11.911 22.8354 13.2206 22.5791 13.2932C22.2572 13.2258 20.952 11.8828 20.952 9.62764C20.9522 8.02537 21.9568 6.45044 22.5422 5.66884ZM18.638 7.98684C18.9947 8.09937 19.49 8.28671 19.9998 8.55391C19.9291 8.90391 19.8855 9.26297 19.8855 9.62764C19.8855 11.0528 20.339 12.2878 20.9206 13.14C20.3484 12.8912 19.7039 12.4458 19.1995 11.6904C18.437 10.5496 18.5266 8.85324 18.638 7.98684ZM17.5674 10.1514C17.6651 10.8811 17.8812 11.6374 18.3131 12.2832C18.5 12.5631 18.7226 12.8146 18.9596 13.0512C18.8498 13.0408 18.74 13.0266 18.6308 13.0048C17.4287 12.766 16.4267 11.5199 15.9658 10.8522C16.3354 10.6344 16.9178 10.3414 17.5674 10.1514Z" fill="white"/>
</svg>
