<svg width="37" height="37" viewBox="0 0 37 37" fill="none" xmlns="http://www.w3.org/2000/svg">
<g clip-path="url(#clip0_0_1223)">
<path d="M16.7865 16.1194H1.06679C0.753757 16.1194 0.5 16.3732 0.5 16.6862C0.5 16.9993 0.753757 17.253 1.06679 17.253H16.7865C17.0995 17.253 17.3532 16.9993 17.3532 16.6862C17.3532 16.3732 17.0995 16.1194 16.7865 16.1194Z" fill="white"/>
<path d="M10.7404 13.7009L5.90361 13.7006C5.59058 13.7006 5.33682 13.9543 5.33682 14.2674C5.33682 14.5805 5.59051 14.8341 5.90361 14.8342L10.7404 14.8344C11.0534 14.8344 11.3072 14.5808 11.3072 14.2677C11.3073 13.9546 11.0535 13.7009 10.7404 13.7009Z" fill="white"/>
<path d="M10.7403 11.2826H10.7402L8.92646 11.2829C8.61336 11.2829 8.35967 11.5367 8.35974 11.8498C8.35974 12.1628 8.6135 12.4165 8.92653 12.4165L10.7404 12.4162C11.0535 12.4162 11.3072 12.1624 11.3071 11.8494C11.3072 11.5363 11.0533 11.2826 10.7403 11.2826Z" fill="white"/>
<path d="M15.5773 18.5374H5.90361C5.59058 18.5374 5.33682 18.7911 5.33682 19.1041C5.33682 19.4172 5.59058 19.6709 5.90361 19.6709H15.5773C15.8903 19.6709 16.144 19.4172 16.144 19.1041C16.144 18.7911 15.8903 18.5374 15.5773 18.5374Z" fill="white"/>
<path d="M3.48504 13.7006H2.2758C1.96277 13.7006 1.70901 13.9543 1.70901 14.2674C1.70901 14.5804 1.96277 14.8342 2.2758 14.8342H3.48504C3.79807 14.8342 4.05182 14.5804 4.05182 14.2674C4.05182 13.9543 3.79807 13.7006 3.48504 13.7006Z" fill="white"/>
<path d="M27.4064 15.0268L28.8686 15.6848C29.3364 15.8951 29.8324 16.0018 30.3428 16.0018C31.2478 16.0018 32.1133 15.6626 32.7798 15.0464L35.8945 12.1647C36.5533 11.5552 36.6936 10.5581 36.2209 9.84522C35.9294 9.40563 35.4649 9.1177 34.9465 9.05541C34.4285 8.99325 33.9113 9.16045 33.5279 9.51476L30.3676 12.439C30.3563 12.4494 30.3402 12.452 30.3263 12.4458L27.6475 11.2403C27.1343 11.0093 26.5266 11.1817 26.2023 11.6499C25.7388 12.319 25.0612 12.6379 24.5544 12.4252C24.0274 12.2041 23.781 11.4437 23.9684 10.6173C24.0915 10.0743 23.815 9.51567 23.311 9.28884L20.3794 7.96957C19.1165 7.40131 17.6212 7.61646 16.57 8.51759L13.2614 11.3535C12.5797 11.9378 12.401 12.9295 12.8458 13.6602C13.1202 14.1109 13.5735 14.4164 14.0895 14.4983C14.6051 14.5801 15.1283 14.4323 15.5241 14.0925L18.8819 11.2145C18.893 11.2051 18.9088 11.2027 18.9222 11.2087L20.3174 11.8365C20.4753 11.9076 20.5956 12.0362 20.6559 12.1986C20.7162 12.3611 20.7092 12.5369 20.6359 12.6939L15.8604 22.9345C15.8521 22.9523 15.833 22.9609 15.8138 22.9543L8.7376 20.5385C8.44292 20.4325 8.11835 20.5854 8.01239 20.88L6.57957 24.8623C6.52873 25.0037 6.53605 25.1595 6.60003 25.2956C6.66401 25.4316 6.77954 25.5366 6.92101 25.5875L7.4899 25.7921C7.75526 25.8876 8.0266 25.9328 8.29357 25.9328C9.08944 25.9328 9.84614 25.5303 10.2876 24.8559L15.1147 26.4629C15.4829 26.5857 15.865 26.6478 16.2505 26.6478C17.6355 26.6478 18.9092 25.8382 19.4986 24.5842L20.6051 22.4227L25.7205 24.5374C25.7315 24.5421 25.7386 24.5499 25.743 24.5641L27.707 30.8335V33.0104C27.707 33.3234 27.9608 33.5772 28.2738 33.5772H32.5061C32.8191 33.5772 33.0728 33.3234 33.0728 33.0104V32.4058C33.0728 31.2674 32.2694 30.3136 31.1999 30.0803L29.0124 23.0237C28.6976 22.0006 27.9503 21.1775 26.962 20.7654L24.5077 19.7428L26.5605 15.3408C26.7083 15.0243 27.0877 14.8834 27.4064 15.0268ZM19.9066 10.4087L19.387 10.1748C18.975 9.98936 18.4871 10.0596 18.144 10.3537L14.7859 13.232C14.6428 13.3548 14.4538 13.4082 14.267 13.3786C14.0774 13.3485 13.9165 13.2391 13.8139 13.0706C13.6574 12.8134 13.7386 12.4372 13.9989 12.2141L17.3075 9.37821C18.0268 8.76157 19.05 8.61448 19.914 9.0033L20.4572 9.24778L19.9066 10.4087ZM9.46905 23.9744C9.23632 24.6214 8.52061 24.9584 7.8736 24.7256L7.83802 24.7128L8.88708 21.7972L10.096 22.2322L9.46905 23.9744ZM29.3652 13.2562L29.861 13.4794C30.2904 13.6726 30.7916 13.5908 31.1374 13.271L34.2975 10.3469C34.4361 10.2188 34.6229 10.1582 34.8112 10.1808C35.0019 10.2038 35.167 10.307 35.2761 10.4716C35.4422 10.7221 35.3757 11.1003 35.1246 11.3325L32.0101 14.2141C31.5538 14.636 30.9617 14.8682 30.3428 14.8682C29.9938 14.8682 29.6543 14.7951 29.3338 14.6509L28.8147 14.4174L29.3652 13.2562ZM18.4848 24.0768C18.4816 24.083 18.4786 24.0892 18.4756 24.0956C18.0737 24.9575 17.2003 25.5145 16.2503 25.5145C15.9869 25.5145 15.7254 25.4719 15.4729 25.3876L10.7332 23.8096L11.1673 22.6032L15.4546 24.0296C16.0196 24.219 16.6356 23.9543 16.8877 23.4138L16.9187 23.3474L18.5194 24.0091L18.4848 24.0768ZM31.9393 32.406V32.4438H28.8407V31.1589H30.6923C31.3799 31.159 31.9393 31.7184 31.9393 32.406ZM26.2608 21.7014L26.5259 21.8118C27.2022 22.0938 27.7136 22.6571 27.9294 23.3583L29.9961 30.0254H28.6418L26.8255 24.2283C26.7227 23.8942 26.4789 23.6255 26.1549 23.4905L25.6309 23.2739L26.2608 21.7014ZM25.5332 14.862L23.4605 19.3066L21.2351 18.3866C20.9458 18.2672 20.6144 18.4046 20.4948 18.6939C20.3752 18.9832 20.5128 19.3147 20.8021 19.4342L25.2142 21.2654L24.5832 22.8409L20.5549 21.1757C20.2823 21.0629 19.9684 21.1785 19.8338 21.4413L19.0375 22.9969L17.3981 22.3191L21.663 13.1731C21.8654 12.739 21.8851 12.2528 21.7182 11.8038C21.5717 11.4096 21.2974 11.0876 20.9369 10.8818L21.4911 9.71332L22.8454 10.3228C22.8623 10.3304 22.866 10.3509 22.8625 10.3667C22.5482 11.7528 23.0634 13.0292 24.1154 13.4706C25.1211 13.8927 26.3625 13.4094 27.1341 12.2955C27.145 12.2797 27.1646 12.2664 27.1821 12.2742L28.3312 12.7913L27.7793 13.9551C26.9185 13.6244 25.9274 14.0166 25.5332 14.862Z" fill="white"/>
<path d="M29.4831 3.42246H26.4601C25.1474 3.42246 24.0795 4.49044 24.0795 5.8031V7.01233C24.0795 8.65834 25.4186 9.99757 27.0647 9.99757C28.7107 9.99757 30.05 8.65841 30.05 7.01233V3.98925C30.05 3.67622 29.7961 3.42246 29.4831 3.42246ZM28.9163 7.01226C28.9163 8.03319 28.0857 8.86386 27.0647 8.86386C26.0438 8.86386 25.2131 8.03319 25.2131 7.01226V5.8031C25.2131 5.11551 25.7725 4.55611 26.4601 4.55611H28.9163V7.01226Z" fill="white"/>
</g>
<defs>
<clipPath id="clip0_0_1223">
<rect width="36" height="36" fill="white" transform="translate(0.5 0.5)"/>
</clipPath>
</defs>
</svg>
