<?xml version="1.0" encoding="iso-8859-1"?>
<!-- Generator: Adobe Illustrator 19.0.0, SVG Export Plug-In . SVG Version: 6.00 Build 0)  -->
<svg version="1.1" id="Layer_1" xmlns="http://www.w3.org/2000/svg" xmlns:xlink="http://www.w3.org/1999/xlink" x="0px" y="0px"
	 viewBox="0 0 241.177 241.177" style="enable-background:new 0 0 241.177 241.177;" xml:space="preserve">
<g>
	<g>
		<g>
			<path d="M237.591,88.078c-2.3-7.98-4.012-16.108-3.952-24.456c0.068-9.144,4.196-16.684,5.42-25.352
				c0.828-5.852-1.26-15.08-8.468-15.132c-5.7-0.04-10.148,5.004-14.76,7.416c-3.144,1.644-5.568,2.604-6.836,6.248
				c-1.66,4.772,0.14,10.892,0.5,15.748c0.728,9.828-0.064,18.364-4.612,27.264c-9.452,18.496-22.244,37.544-38.792,50.864
				c-3.016,1.072-6.092,1.992-9.256,2.652c-21.536,4.508-45.5-3.248-63.86-14.548c-13.492-8.304-24.38-19.6-34.388-31.74
				c-5.836-7.076-13.232-18.724-23.524-11.452c-12.08,8.536-11.884,30.248-8.624,43.68c-8.888-4.96-18.116-7.348-23.556,2.488
				c-4.952,8.956-2.552,21.488-0.008,30.812c3.124,11.444,9.136,21.86,17.172,30.556c18.224,19.72,43.804,30.068,70.012,33.524
				c52.092,6.864,99.124-11.82,131.512-53.392C239.683,140.01,245.803,116.55,237.591,88.078z M228.407,27.606
				c5.532-0.288,6.872,3.536,6.532,8.436c-5.112,7.776-14.672,14.708-22.512,6.116C211.755,35.642,226.339,27.714,228.407,27.606z
				 M51.507,84.254c2.084,2.524,3.928,5.252,5.52,7.164c17.636,21.176,38.684,37.1,65.72,44.104
				c11.916,3.084,23.36,3.588,34.66,1.428c-9.456,5.932-20.004,9.94-31.708,11.076c-12.356,1.416-24.348,1.064-36.004-0.88
				c-25.312-11.064-48.176-30.204-50.816-57.42c0.348,0.296,0.724,0.56,1.14,0.768l1.072,0.532l0.844-4.428l4.624,1.836
				l-0.016-1.352c-0.016-1.664,0.016-3.632,0.092-4.408c0.064,0.008,0.14,0.028,0.236,0.06L51.507,84.254z M33.659,83.43
				l0.224-1.172c0.676-0.892,1.416-1.708,2.26-2.38c4.92-3.928,9.212-1.92,12.876,1.652l-1.588-0.52
				c-1.484-0.476-2.132,0.232-2.348,0.556c-0.136,0.204-0.356,0.532-0.364,4.188l-3.812-1.512l-0.356,0.788
				c-0.072,0.16-0.308,0.704-0.376,1.08l-0.384,2.004c-0.8-0.82-1.28-2-1.256-3.232l0.04-2.076l-1.548,1.38
				c-1.872,1.668-3.028,2.66-3.74,3.248C33.327,86.194,33.467,84.426,33.659,83.43z M31.519,86.446
				c-0.084,1.364-0.076,2.72,0.224,3.156l0.248,0.344l0.376,0.068c0.48,0.088,0.644,0.128,4.472-3.244
				c1.112,27.1,21.456,46.784,45.516,58.924c-13.192-3.004-25.948-8.068-38.292-15.032c-3.36-1.896-7.768-5.204-12.524-8.296
				c-1.172-3.612-2.02-7.328-2.444-11.132C28.367,104.662,28.351,94.034,31.519,86.446z M28.663,126.07
				c8.56,5.34,17.224,10.516,26.392,14.756c22.396,10.356,46.136,14.004,70.644,11.196c21.408-2.072,39.104-12.312,53.46-28.116
				c7.832-8.62,14.772-18.276,21.032-28.076c6.076-9.516,12.552-19.456,13.48-30.956c0.408-5.064,0.06-10.232-0.42-15.276
				c-0.144-1.492-0.476-3.108-0.632-4.68c7.36,6.348,16.128,1.716,21.812-5.128c-1.156,5.928-3.692,12.308-4.084,14.824
				c-1.02,6.572-0.72,12.956,0.18,19.248c-1.52,47.64-47.892,90.144-91.404,101.716c-41.236,10.968-105.944,2.128-126.32-41.144
				c0.608,0.288,1.244,0.52,1.916,0.6l1.208,0.148l-0.904-5.316c0-0.008-0.004-0.016-0.004-0.024l5.676,0.212l-0.472-1.272
				c-0.832-2.228-1.752-4.932-1.844-5.2c0.028-0.024,0.184-0.088,0.5-0.1l5.716-0.156C26.071,124.33,27.447,125.314,28.663,126.07z
				 M10.167,119.486c3.696-1.92,7.896-0.216,11.72,2.104l-3.064,0.084c-1.696,0.044-2.092,1.036-2.188,1.456
				c-0.052,0.236-0.156,0.704,1.408,5.012l-4.804-0.176l-0.048,0.892c-0.008,0.144-0.04,0.876,0.036,1.32l0.46,2.712
				c-1.332-0.592-2.452-1.832-2.976-3.368l-0.696-2.048l-0.972,1.928c-1.444,2.86-2.308,4.5-2.82,5.432
				c-0.492-1.428-1.14-3.708-1.364-5.032l-0.248-1.464C5.275,124.59,6.835,121.214,10.167,119.486z M235.467,130.174
				c-7.088,24.304-27.712,46.364-47.928,60.868c-18.252,13.1-39.664,20.872-62.048,22.74
				c-49.076,4.096-115.052-16.748-120.944-73.836c-0.164-1.588-0.32-3.428-0.364-5.348c0.528,1.588,1.204,2.988,1.98,2.988
				c0.036,0,0.072-0.004,0.104-0.008c0.532-0.088,0.716-0.132,3.508-5.624c18.748,45.82,83.876,56.3,126.616,46.176
				c43.424-10.284,89.736-50.528,95.38-97.168C235.019,97.178,240.467,113.026,235.467,130.174z"/>
			<path d="M25.831,139.342c1.824,0,1.828-2.836,0-2.836C24.007,136.506,24.003,139.342,25.831,139.342z"/>
			<path d="M36.375,182.366c-1.824,0.004-1.828,2.836,0,2.836C38.199,185.202,38.203,182.366,36.375,182.366z"/>
			<path d="M42.975,185.33c-1.824,0-1.824,2.836,0,2.836C44.799,188.166,44.803,185.33,42.975,185.33z"/>
			<path d="M39.163,175.25c-1.824,0-1.828,2.836,0,2.836C40.987,178.086,40.991,175.25,39.163,175.25z"/>
			<path d="M12.587,147.602c-1.824,0.004-1.828,2.836,0,2.836C14.411,150.438,14.415,147.602,12.587,147.602z"/>
			<path d="M106.591,196.278c-1.824,0.004-1.828,2.836,0,2.836C108.415,199.114,108.419,196.278,106.591,196.278z"/>
			<path d="M84.291,192.662c-1.824,0-1.828,2.836,0,2.836C86.115,195.498,86.119,192.662,84.291,192.662z"/>
			<path d="M25.823,166.778c-1.824,0.004-1.824,2.836,0,2.836C27.647,169.614,27.651,166.778,25.823,166.778z"/>
			<path d="M57.959,105.902c1.824,0,1.828-2.836,0-2.836C56.135,103.07,56.135,105.902,57.959,105.902z"/>
			<path d="M68.851,122.554c1.824,0,1.828-2.836,0-2.836C67.027,119.718,67.023,122.554,68.851,122.554z"/>
			<path d="M68.851,112.022c1.824,0,1.828-2.836,0-2.836C67.027,109.186,67.023,112.022,68.851,112.022z"/>
			<path d="M72.079,190.682c-1.824,0-1.828,2.836,0,2.836C73.903,193.518,73.907,190.682,72.079,190.682z"/>
			<path d="M178.039,175.702c-1.824,0-1.824,2.836,0,2.836C179.863,178.538,179.867,175.702,178.039,175.702z"/>
			<path d="M145.891,155.03c1.824,0,1.828-2.836,0-2.836C144.067,152.198,144.063,155.03,145.891,155.03z"/>
			<path d="M130.691,161.398c1.824,0,1.828-2.836,0-2.836C128.867,158.562,128.863,161.398,130.691,161.398z"/>
			<path d="M131.695,146.286c1.824,0,1.828-2.836,0-2.836C129.871,143.45,129.867,146.286,131.695,146.286z"/>
			<path d="M101.579,193.574c-1.824,0-1.828,2.836,0,2.836C103.403,196.41,103.407,193.574,101.579,193.574z"/>
			<path d="M117.539,209.406c-1.824,0.004-1.828,2.836,0,2.836C119.363,212.242,119.367,209.406,117.539,209.406z"/>
			<path d="M152.851,189.906c-1.824,0-1.828,2.836,0,2.836C154.675,192.742,154.679,189.906,152.851,189.906z"/>
			<path d="M85.287,128.062c1.824,0,1.828-2.836,0-2.836C83.463,125.23,83.459,128.062,85.287,128.062z"/>
		</g>
	</g>
</g>
<g>
</g>
<g>
</g>
<g>
</g>
<g>
</g>
<g>
</g>
<g>
</g>
<g>
</g>
<g>
</g>
<g>
</g>
<g>
</g>
<g>
</g>
<g>
</g>
<g>
</g>
<g>
</g>
<g>
</g>
</svg>
