<svg width="24" height="18" viewBox="0 0 24 18" fill="none" xmlns="http://www.w3.org/2000/svg">
<path d="M22.0746 6.91509L21.3964 5.55858C21.1566 5.07895 20.6746 4.78106 20.1386 4.78106H16.2181V1.49995C16.2181 0.724594 15.5873 0.09375 14.8119 0.09375H1.4062C0.630797 0.09375 0 0.724547 0 1.49995V13.6869C0 14.4623 0.630797 15.0931 1.4062 15.0931H2.81241C2.81241 15.8129 3.08452 16.4701 3.53081 16.968H0.46875C0.209859 16.968 0 17.178 0 17.4368C0 17.6956 0.209859 17.9055 0.46875 17.9055H23.5303C23.7892 17.9055 23.9991 17.6956 23.9991 17.4368C23.9991 17.178 23.7892 16.968 23.5303 16.968H22.3432C22.7895 16.47 23.0616 15.8129 23.0616 15.0931C23.0616 15.0664 23.0603 15.0398 23.0595 15.0132C23.6062 14.8202 23.999 14.2987 23.999 13.6869V11.0958C23.999 10.5488 24.1073 11.0595 22.0746 6.91509ZM21.3657 7.59342L22.7719 10.4058H18.093V7.59342H21.3657ZM0.937453 11.3433H1.87491V12.2807H0.937453V11.3433ZM5.62477 16.968C4.59094 16.968 3.74986 16.1269 3.74986 15.0931C3.74986 14.9655 3.76252 14.8398 3.78783 14.7176C3.96412 13.8488 4.73667 13.2182 5.62477 13.2182C6.51286 13.2182 7.28545 13.8488 7.4617 14.7176C7.46184 14.7183 7.46198 14.7189 7.46212 14.7195C7.48706 14.8397 7.49967 14.9655 7.49967 15.0931C7.49967 16.127 6.65859 16.968 5.62477 16.968ZM5.62477 12.2807C4.42378 12.2807 3.36389 13.0501 2.97314 14.1556H1.4062C1.14773 14.1556 0.937453 13.9454 0.937453 13.6869V13.2181H2.34366C2.60255 13.2181 2.81241 13.0082 2.81241 12.7494V10.8745C2.81241 10.6156 2.60255 10.4057 2.34366 10.4057H0.937453V1.49995C0.937453 1.24148 1.14773 1.0312 1.4062 1.0312H14.8119C15.0704 1.0312 15.2806 1.24148 15.2806 1.49995C15.2806 1.84866 15.2806 13.0316 15.2806 14.1557H8.27616C7.8847 13.0495 6.82523 12.2807 5.62477 12.2807ZM7.71872 16.968C8.16506 16.47 8.43713 15.8129 8.43713 15.0931C8.79703 15.0931 17.2835 15.0931 17.4368 15.0931C17.4368 15.8129 17.7089 16.4701 18.1552 16.968H7.71872ZM20.2492 16.968C19.2153 16.968 18.3743 16.1269 18.3743 15.0931C18.3743 14.9655 18.3869 14.8398 18.4122 14.7176C18.5885 13.8488 19.3611 13.2182 20.2492 13.2182C21.1372 13.2182 21.9098 13.8488 22.0861 14.7176C22.0862 14.7183 22.0864 14.7189 22.0865 14.7195C22.1115 14.8397 22.1241 14.9655 22.1241 15.0931C22.1241 16.127 21.283 16.968 20.2492 16.968ZM23.0616 13.6869C23.0616 13.8428 22.9847 13.9808 22.8673 14.0661C22.4515 13.0082 21.417 12.2808 20.2492 12.2808C19.0482 12.2808 17.9883 13.0501 17.5975 14.1557H16.218V5.71852H20.1385C20.3172 5.71852 20.4779 5.81789 20.5578 5.97778L20.8969 6.65597H17.6243C17.3654 6.65597 17.1555 6.86587 17.1555 7.12472V10.8746C17.1555 11.1334 17.3654 11.3433 17.6243 11.3433H23.0616V13.6869Z" fill="black"/>
</svg>
