<?xml version="1.0" ?><svg width="128px" height="128px" viewBox="0 0 128 128" id="Layer_1" style="enable-background:new 0 0 128 128;" version="1.1" xml:space="preserve" xmlns="http://www.w3.org/2000/svg" xmlns:xlink="http://www.w3.org/1999/xlink"><g><path d="M113.86,114.394l-5.45-10.378c5.633-5.068,7.179-13.425,3.615-20.21s-11.318-10.256-18.69-8.497L71.501,33.729   c-0.256-0.489-0.861-0.678-1.35-0.42c-6.781,3.561-9.669,11.591-6.718,18.68l6.405,15.315c1.833,4.345,2.284,9.369,1.315,14.542   c-1.273-4.232-3.3-8.162-6.005-11.542c-3.317-4.146-5.292-8.865-5.71-13.647l-1.447-16.53c-0.316-3.688-1.984-7.076-4.694-9.539   c-2.461-2.257-5.585-3.585-8.887-3.818c0.14-2.169,0.779-7.553,3.715-10.489c0.391-0.391,0.391-1.023,0-1.414s-1.023-0.391-1.414,0   c-1.098,1.098-1.915,2.452-2.528,3.865c-0.574-3.852-2.181-6.72-4.788-8.54c-5.363-3.745-12.925-1.594-13.245-1.5   c-0.045,0.013-0.078,0.044-0.119,0.063c-0.06,0.027-0.118,0.052-0.171,0.09c-0.054,0.038-0.098,0.083-0.143,0.13   c-0.044,0.046-0.085,0.09-0.119,0.143c-0.035,0.055-0.059,0.112-0.083,0.172c-0.023,0.059-0.045,0.115-0.057,0.178   c-0.013,0.066-0.012,0.132-0.011,0.2c0.001,0.044-0.013,0.084-0.007,0.129c0.048,0.329,1.251,8.099,6.892,11.41   c1.638,0.961,3.466,1.441,5.47,1.441c1.677,0,3.484-0.354,5.398-1.028c-0.546,2.102-0.736,4.038-0.8,5.145   c-7.232,0.462-13.026,6.042-13.654,13.359l-1.447,16.532c-0.418,4.782-2.393,9.501-5.71,13.647   c-4.878,6.096-7.565,13.981-7.565,22.203c0,16.851,11.244,27.319,29.344,27.319c15.72,0,26.264-7.9,28.766-21.016   c0.672,2.19,1.547,4.339,2.634,6.408c5.123,9.756,13.238,14.854,22.729,14.854c5.01,0,10.405-1.422,15.942-4.33   C113.929,115.487,114.117,114.882,113.86,114.394z M110.255,84.735c3.059,5.825,1.853,12.969-2.802,17.458L94.292,77.131   C100.629,75.846,107.196,78.911,110.255,84.735z M33.355,19.488c-3.792-2.22-5.281-7.082-5.75-9.084   c2.011-0.413,7.034-1.092,10.646,1.429c2.301,1.606,3.649,4.3,4.041,7.988C38.782,21.002,35.773,20.903,33.355,19.488z    M70.713,92.507c0,18.668-14.125,25.319-27.344,25.319c-13.219,0-27.344-6.651-27.344-25.319c0-7.769,2.531-15.21,7.126-20.953   c3.564-4.455,5.688-9.546,6.141-14.722l1.447-16.534c0.568-6.6,5.997-11.577,12.629-11.577c3.182,0,6.228,1.187,8.58,3.343   c2.338,2.126,3.777,5.05,4.05,8.235l1.447,16.532c0.453,5.176,2.577,10.267,6.141,14.722c3.926,4.905,6.338,11.051,6.96,17.581   c0.019,0.812,0.071,1.625,0.147,2.438C70.703,91.885,70.713,92.195,70.713,92.507z M76.54,104.29   c-2.132-4.06-3.425-8.432-3.847-12.821c-0.023-0.82-0.071-1.637-0.147-2.448c-0.048-2.228,0.128-4.446,0.543-6.616   c1.089-5.626,0.603-11.117-1.406-15.875l-6.403-15.311c-2.42-5.813-0.291-12.352,4.938-15.633l41.4,78.838   C100.024,120.14,84.992,120.387,76.54,104.29z"/><path d="M43.582,74.505c-9.095,0.231-16.307,7.818-16.076,16.913c0.227,8.954,7.583,16.082,16.489,16.082   c0.141,0,0.282-0.001,0.424-0.005c9.095-0.231,16.307-7.818,16.076-16.913C60.264,81.486,52.665,74.255,43.582,74.505z    M44.368,105.496c-8.022,0.187-14.66-6.136-14.863-14.128c-0.202-7.993,6.135-14.66,14.128-14.863   c0.125-0.003,0.248-0.004,0.372-0.004c7.826,0,14.292,6.265,14.491,14.132C58.698,98.625,52.36,105.292,44.368,105.496z"/></g></svg>