<svg width="22" height="23" viewBox="0 0 22 23" fill="none" xmlns="http://www.w3.org/2000/svg">
<path d="M21.7594 2.58934C21.7581 1.5814 20.9409 0.764648 19.9327 0.764648H12.2838C11.7993 0.764648 11.3347 0.957046 10.9921 1.29959L1.03523 11.2544C0.321647 11.9678 0.32159 13.1246 1.03506 13.8382L8.68399 21.4871C9.04069 21.8439 9.50827 22.0223 9.97585 22.0223C10.2702 22.0223 10.5613 21.9433 10.8279 21.8019C11.8039 20.9982 10.36 22.3947 21.2244 11.5324C21.5671 11.1898 21.7596 10.725 21.7596 10.2404C21.7596 2.48173 21.7597 3.8071 21.7594 2.58934ZM20.8462 10.2404C20.8462 10.4844 20.7511 10.7138 20.5786 10.8864L10.6217 20.8413C10.4491 21.0139 10.2197 21.1089 9.97574 21.1089C9.73173 21.1089 9.50239 21.0138 9.3298 20.8413L1.68099 13.1923C1.50846 13.0198 1.41346 12.7903 1.41346 12.5464C1.41346 12.3024 1.50852 12.073 1.68105 11.9004L11.6379 1.94558C11.8104 1.77311 12.0398 1.67811 12.2838 1.67811H19.9328C20.4364 1.67811 20.8462 2.08791 20.8462 2.59157V10.2404H20.8462Z" fill="black"/>
</svg>
