<svg width="46" height="50" viewBox="0 0 46 50" fill="none" xmlns="http://www.w3.org/2000/svg">
<path d="M42.3768 6.73115L43.192 9.02344C43.2269 9.12158 43.296 9.19932 43.3833 9.23867L45.4198 10.1562C45.7075 10.2859 45.7075 10.7443 45.4198 10.8739L43.3833 11.7915C43.296 11.8308 43.227 11.9086 43.192 12.0067L42.3768 14.299C42.2617 14.6229 41.8543 14.6229 41.7392 14.299L40.924 12.0067C40.8891 11.9086 40.82 11.8309 40.7328 11.7915L38.6962 10.8739C38.4085 10.7443 38.4085 10.2858 38.6962 10.1562L40.7328 9.23867C40.82 9.19941 40.889 9.12158 40.924 9.02344L41.7392 6.73115C41.8543 6.40732 42.2616 6.40732 42.3768 6.73115Z" fill="black"/>
<path d="M11.9069 0.180176L12.5116 1.88057C12.5375 1.95332 12.5888 2.01104 12.6534 2.04023L14.1641 2.7209C14.3776 2.81709 14.3776 3.15713 14.1641 3.25322L12.6534 3.93389C12.5888 3.96299 12.5375 4.0207 12.5116 4.09355L11.9069 5.79395C11.8215 6.03418 11.5193 6.03418 11.4339 5.79395L10.8292 4.09355C10.8033 4.0208 10.752 3.96309 10.6874 3.93389L9.17664 3.25322C8.96326 3.15703 8.96326 2.81699 9.17664 2.7209L10.6874 2.04023C10.752 2.01113 10.8033 1.95342 10.8292 1.88057L11.4339 0.180176C11.5193 -0.0600586 11.8215 -0.0600586 11.9069 0.180176Z" fill="black"/>
<path d="M36.5987 3.73105C36.5987 4.39258 36.0625 4.92881 35.401 4.92881C34.7395 4.92881 34.2031 4.39248 34.2031 3.73105C34.2031 3.06953 34.7394 2.5332 35.401 2.5332C36.0625 2.5332 36.5987 3.06943 36.5987 3.73105Z" fill="black"/>
<path d="M3.90098 10.4021C3.90098 11.3793 3.10879 12.1715 2.13164 12.1715C1.15449 12.1715 0.362305 11.3793 0.362305 10.4021C0.362305 9.425 1.15449 8.63281 2.13164 8.63281C3.10879 8.63291 3.90098 9.425 3.90098 10.4021Z" fill="black"/>
<path d="M22.1709 50C11.0168 50 1.94238 40.9255 1.94238 29.7715C1.94238 18.6175 11.0168 9.54297 22.1709 9.54297C33.325 9.54297 42.3994 18.6175 42.3994 29.7715C42.3993 40.9255 33.3249 50 22.1709 50ZM22.1709 11.507C12.0998 11.507 3.90654 19.7004 3.90654 29.7714C3.90654 39.8424 12.0999 48.0358 22.1709 48.0358C32.2419 48.0358 40.4353 39.8425 40.4353 29.7715C40.4353 19.7005 32.2419 11.507 22.1709 11.507Z" fill="black"/>
<path d="M17.6208 25.242C17.0785 25.242 16.6388 24.8023 16.6388 24.26C16.6388 22.7527 15.4126 21.5266 13.9055 21.5266C12.3982 21.5266 11.1721 22.7527 11.1721 24.26C11.1721 24.8023 10.7323 25.242 10.19 25.242C9.64775 25.242 9.20801 24.8023 9.20801 24.26C9.20801 21.6697 11.3153 19.5625 13.9056 19.5625C16.4957 19.5625 18.603 21.6698 18.603 24.26C18.6028 24.8023 18.1631 25.242 17.6208 25.242Z" fill="black"/>
<path d="M34.1521 25.242C33.6098 25.242 33.17 24.8023 33.17 24.26C33.17 22.7527 31.9438 21.5266 30.4366 21.5266C28.9295 21.5266 27.7033 22.7527 27.7033 24.26C27.7033 24.8023 27.2636 25.242 26.7213 25.242C26.179 25.242 25.7393 24.8023 25.7393 24.26C25.7393 21.6697 27.8466 19.5625 30.4367 19.5625C33.027 19.5625 35.1343 21.6698 35.1343 24.26C35.1341 24.8023 34.6943 25.242 34.1521 25.242Z" fill="black"/>
<path d="M35.2406 29.1543H9.10117C8.55889 29.1543 8.11914 29.5939 8.11914 30.1363C8.11914 37.8845 14.4228 44.1881 22.1709 44.1881C29.919 44.1881 36.2227 37.8845 36.2227 30.1363C36.2227 29.594 35.7829 29.1543 35.2406 29.1543ZM14.7106 39.6398C16.051 37.4915 18.9421 36.0905 22.1709 36.0905C25.3996 36.0905 28.2907 37.4915 29.6312 39.6398C27.5751 41.2574 24.9839 42.224 22.1709 42.224C19.3579 42.224 16.7667 41.2574 14.7106 39.6398ZM31.0874 38.2881C29.3176 35.7558 25.9137 34.1265 22.1708 34.1265C18.4278 34.1265 15.0236 35.7556 13.254 38.2879C11.4933 36.3635 10.3449 33.8698 10.1226 31.1185H34.2189C33.9967 33.8699 32.8483 36.3637 31.0874 38.2881Z" fill="black"/>
</svg>
