<svg width="10" height="11" viewBox="0 0 10 11" fill="none" xmlns="http://www.w3.org/2000/svg">
<path d="M9.12252 1.30086C8.55989 0.737835 7.79651 0.421615 7.00058 0.421883C6.20495 0.420006 5.44156 0.736126 4.88018 1.29989L1.00661 5.1735C0.240205 5.9411 -0.0527889 7.0623 0.240138 8.10672C0.325904 8.41077 0.641923 8.58774 0.945977 8.50197C1.25003 8.4162 1.42699 8.10018 1.34123 7.79613C1.16064 7.15025 1.34183 6.45718 1.81541 5.98233L5.68898 2.1093C6.41318 1.38492 7.5875 1.38479 8.31188 2.10903C9.03625 2.83323 9.03638 4.00755 8.31218 4.73193L4.43861 8.6055C4.18476 8.85968 3.86237 9.0344 3.51083 9.1083C3.20155 9.17268 3.00303 9.4756 3.06742 9.78488C3.12278 10.0508 3.35756 10.2411 3.62921 10.2403C3.66919 10.2403 3.70907 10.2361 3.74819 10.2277C4.31631 10.1079 4.83724 9.8253 5.24741 9.41433L9.12101 5.54133C10.2924 4.37076 10.2931 2.47227 9.12252 1.30086Z" fill="#A8A8A8"/>
</svg>
