<svg width="10" height="11" viewBox="0 0 10 11" fill="none" xmlns="http://www.w3.org/2000/svg">
<path d="M9.74303 2.90804C9.65726 2.60399 9.34124 2.42703 9.03719 2.51279C8.73314 2.59856 8.55617 2.91458 8.64194 3.21863C8.82252 3.86451 8.64134 4.55758 8.16776 5.03243L4.29416 8.90604C3.56995 9.63041 2.39563 9.63054 1.67126 8.9063C0.946882 8.1821 0.946748 7.00778 1.67095 6.2834L5.54456 2.40923C5.798 2.15511 6.12002 1.9804 6.4712 1.90643C6.78098 1.84446 6.98188 1.54312 6.91991 1.23337C6.85794 0.923615 6.5566 0.722689 6.24685 0.78466C6.24306 0.78543 6.2393 0.786201 6.23555 0.787039C5.66733 0.906992 5.14622 1.1896 4.73576 1.60043L0.862155 5.47403C-0.300034 6.65415 -0.285488 8.55295 0.894631 9.71514C2.06188 10.8646 3.93554 10.8648 5.10296 9.7154L8.97653 5.84123C9.74296 5.07362 10.036 3.95242 9.74303 2.90804Z" fill="#A8A8A8"/>
</svg>
