<svg width="29" height="12" viewBox="0 0 29 12" fill="none" xmlns="http://www.w3.org/2000/svg">
<path d="M4.32068 11.2568C7.00867 11.2568 8.60535 9.15479 8.60535 5.59521C8.60535 4.25488 8.349 3.12695 7.85828 2.25537C7.14783 0.900391 5.92468 0.167969 4.37927 0.167969C2.07947 0.167969 0.453491 1.71338 0.453491 3.88135C0.453491 5.91748 1.91833 7.39697 3.9325 7.39697C5.17029 7.39697 6.17371 6.81836 6.67175 5.81494H6.69373C6.69373 5.81494 6.72302 5.81494 6.73035 5.81494C6.745 5.81494 6.79626 5.81494 6.79626 5.81494C6.79626 8.23193 5.88074 9.6748 4.33533 9.6748C3.42712 9.6748 2.724 9.17676 2.4823 8.37842H0.599976C0.914917 10.1143 2.38708 11.2568 4.32068 11.2568ZM4.3866 5.89551C3.17078 5.89551 2.30652 5.03125 2.30652 3.82275C2.30652 2.64355 3.21472 1.74268 4.39392 1.74268C5.57312 1.74268 6.48132 2.6582 6.48132 3.85205C6.48132 5.03125 5.59509 5.89551 4.3866 5.89551Z" fill="black"/>
<path d="M11.6965 11.1543C12.3923 11.1543 12.8683 10.6562 12.8683 9.99707C12.8683 9.33057 12.3923 8.83984 11.6965 8.83984C11.008 8.83984 10.5246 9.33057 10.5246 9.99707C10.5246 10.6562 11.008 11.1543 11.6965 11.1543ZM11.6965 5.66113C12.3923 5.66113 12.8683 5.17041 12.8683 4.51123C12.8683 3.84473 12.3923 3.354 11.6965 3.354C11.008 3.354 10.5246 3.84473 10.5246 4.51123C10.5246 5.17041 11.008 5.66113 11.6965 5.66113Z" fill="black"/>
<path d="M19.7241 11.0005H21.5332V9.03027H22.9614V7.43359H21.5332V0.431641H18.8672C16.9995 3.24414 15.5127 5.59521 14.5605 7.3457V9.03027H19.7241V11.0005ZM16.311 7.36768C17.5415 5.19971 18.6401 3.46387 19.6509 1.96973H19.7534V7.47754H16.311V7.36768Z" fill="black"/>
<path d="M26.99 11.0005H28.8797V0.431641H26.9973L24.2361 2.36523V4.18164L26.8655 2.33594H26.99V11.0005Z" fill="black"/>
</svg>
