<svg width="16" height="12" viewBox="0 0 16 12" fill="none" xmlns="http://www.w3.org/2000/svg">
<path fill-rule="evenodd" clip-rule="evenodd" d="M8.33033 2.60838C10.5462 2.60848 12.6774 3.45992 14.2833 4.98672C14.4043 5.10459 14.5976 5.1031 14.7167 4.98338L15.8727 3.81672C15.933 3.75599 15.9666 3.67374 15.9661 3.58816C15.9656 3.50258 15.931 3.42073 15.87 3.36072C11.6549 -0.678832 5.0051 -0.678832 0.789998 3.36072C0.72894 3.42068 0.694296 3.50251 0.693733 3.58809C0.69317 3.67367 0.726734 3.75595 0.786998 3.81672L1.94333 4.98338C2.06236 5.10328 2.25581 5.10477 2.37666 4.98672C3.98282 3.45982 6.11422 2.60838 8.33033 2.60838ZM8.33032 6.40405C9.54781 6.40397 10.7219 6.85651 11.6243 7.67372C11.7464 7.7897 11.9387 7.78718 12.0577 7.66805L13.2123 6.50138C13.2731 6.44019 13.3069 6.35717 13.306 6.27091C13.3051 6.18464 13.2697 6.10233 13.2077 6.04238C10.4595 3.486 6.20352 3.486 3.45532 6.04238C3.39324 6.10233 3.35782 6.18468 3.35701 6.27097C3.35619 6.35727 3.39005 6.44028 3.45099 6.50138L4.60532 7.66805C4.72431 7.78718 4.91659 7.7897 5.03865 7.67372C5.94053 6.85705 7.11364 6.40455 8.33032 6.40405ZM10.6433 8.95787C10.6451 9.04437 10.6111 9.12778 10.5493 9.18838L8.55199 11.204C8.49344 11.2633 8.41361 11.2966 8.33032 11.2966C8.24703 11.2966 8.16721 11.2633 8.10866 11.204L6.11099 9.18838C6.04928 9.12773 6.01533 9.0443 6.01716 8.95779C6.01899 8.87129 6.05644 8.78937 6.12066 8.73138C7.39623 7.6525 9.26442 7.6525 10.54 8.73138C10.6042 8.78942 10.6416 8.87136 10.6433 8.95787Z" fill="black"/>
</svg>
