<svg width="20" height="20" viewBox="0 0 20 20" fill="none" xmlns="http://www.w3.org/2000/svg">
<path d="M10 18.9992C9.35502 18.4272 8.62602 17.8322 7.85502 17.1992H7.84502C5.13002 14.9792 2.05302 12.4672 0.694023 9.45717C0.24754 8.4989 0.0109268 7.4563 1.1406e-05 6.39917C-0.00297039 4.94866 0.578794 3.55816 1.61383 2.54194C2.64887 1.52572 4.04981 0.969566 5.50002 0.999171C6.68065 1.00104 7.83586 1.34225 8.82802 1.98217C9.26399 2.26514 9.65844 2.60743 10 2.99917C10.3435 2.60896 10.7381 2.26688 11.173 1.98217C12.1648 1.34213 13.3197 1.00089 14.5 0.999171C15.9502 0.969566 17.3512 1.52572 18.3862 2.54194C19.4213 3.55816 20.003 4.94866 20 6.39917C19.9898 7.45799 19.7532 8.50237 19.306 9.46217C17.947 12.4722 14.871 14.9832 12.156 17.1992L12.146 17.2072C11.374 17.8362 10.646 18.4312 10.001 19.0072L10 18.9992ZM5.50002 2.99917C4.56853 2.98751 3.67009 3.34401 3.00002 3.99117C2.35441 4.62534 1.99358 5.49422 1.99994 6.39917C2.01135 7.16967 2.18585 7.92902 2.51202 8.62717C3.15353 9.92588 4.01913 11.1012 5.06902 12.0992C6.06002 13.0992 7.20002 14.0672 8.18602 14.8812C8.45902 15.1062 8.73702 15.3332 9.01502 15.5602L9.19002 15.7032C9.45702 15.9212 9.73302 16.1472 10 16.3692L10.013 16.3572L10.019 16.3522H10.025L10.034 16.3452H10.039H10.044L10.062 16.3302L10.103 16.2972L10.11 16.2912L10.121 16.2832H10.127L10.136 16.2752L10.8 15.7302L10.974 15.5872C11.255 15.3582 11.533 15.1312 11.806 14.9062C12.792 14.0922 13.933 13.1252 14.924 12.1202C15.9741 11.1227 16.8397 9.94769 17.481 8.64917C17.8131 7.94497 17.9901 7.17768 18.0001 6.39917C18.0042 5.49701 17.6435 4.63146 17 3.99917C16.3312 3.34909 15.4326 2.98965 14.5 2.99917C13.3619 2.9895 12.274 3.46654 11.51 4.31017L10 6.05017L8.49002 4.31017C7.72609 3.46654 6.6381 2.9895 5.50002 2.99917Z" fill="white"/>
</svg>
