<svg width="24" height="18" viewBox="0 0 24 18" fill="none" xmlns="http://www.w3.org/2000/svg">
<path d="M1 12C1.55 12 2 11.55 2 11V7C2 6.45 1.55 6 1 6C0.45 6 0 6.45 0 7V11C0 11.55 0.45 12 1 12ZM4 14C4.55 14 5 13.55 5 13V5C5 4.45 4.55 4 4 4C3.45 4 3 4.45 3 5V13C3 13.55 3.45 14 4 14ZM22 7V11C22 11.55 22.45 12 23 12C23.55 12 24 11.55 24 11V7C24 6.45 23.55 6 23 6C22.45 6 22 6.45 22 7ZM20 14C20.55 14 21 13.55 21 13V5C21 4.45 20.55 4 20 4C19.45 4 19 4.45 19 5V13C19 13.55 19.45 14 20 14ZM16.5 0H7.5C6.67 0 6 0.67 6 1.5V16.5C6 17.33 6.67 18 7.5 18H16.5C17.33 18 18 17.33 18 16.5V1.5C18 0.67 17.33 0 16.5 0ZM16 16H8V2H16V16Z" fill="#161616"/>
</svg>
