<svg width="20" height="20" viewBox="0 0 20 20" fill="none" xmlns="http://www.w3.org/2000/svg">
<path fill-rule="evenodd" clip-rule="evenodd" d="M10.0001 18.3327C14.6025 18.3327 18.3334 14.6017 18.3334 9.99935C18.3334 5.39698 14.6025 1.66602 10.0001 1.66602C5.39771 1.66602 1.66675 5.39698 1.66675 9.99935C1.66675 14.6017 5.39771 18.3327 10.0001 18.3327ZM15.2666 14.0875C16.1442 12.9585 16.6667 11.54 16.6667 9.99935C16.6667 6.59967 14.122 3.79434 10.8334 3.38426V6.77103C12.2711 7.14107 13.3334 8.44615 13.3334 9.99935C13.3334 10.6176 13.1651 11.1965 12.8719 11.6927L15.2666 14.0875ZM14.088 15.266L11.6933 12.8712C11.1971 13.1644 10.6182 13.3327 10.0001 13.3327C9.38194 13.3327 8.8031 13.1644 8.30685 12.8712L5.91212 15.266C7.04101 16.1435 8.45952 16.666 10.0001 16.666C11.5406 16.666 12.9592 16.1435 14.088 15.266ZM6.66675 9.99935C6.66675 10.6176 6.83504 11.1965 7.12831 11.6927L4.73359 14.0875C3.856 12.9585 3.33341 11.54 3.33341 9.99935C3.33341 6.59967 5.87815 3.79434 9.16675 3.38426V6.77103C7.72906 7.14107 6.66675 8.44615 6.66675 9.99935ZM10.0001 11.666C10.9206 11.666 11.6667 10.9198 11.6667 9.99935C11.6667 9.07887 10.9206 8.33268 10.0001 8.33268C9.07961 8.33268 8.33341 9.07887 8.33341 9.99935C8.33341 10.9198 9.07961 11.666 10.0001 11.666Z" fill="white"/>
</svg>
