<svg width="20" height="20" viewBox="0 0 20 20" fill="none" xmlns="http://www.w3.org/2000/svg">
<path d="M17.3101 7.63L16.1701 4.20917C16.0047 3.71124 15.6866 3.27808 15.261 2.97126C14.8354 2.66443 14.3239 2.49953 13.7992 2.5H6.20091C5.67624 2.49953 5.16476 2.66443 4.73915 2.97126C4.31354 3.27808 3.99546 3.71124 3.83008 4.20917L2.69008 7.63C2.38726 7.75707 2.12865 7.97063 1.94662 8.24397C1.76459 8.51731 1.66724 8.83827 1.66675 9.16667V13.3333C1.66675 13.9608 2.01925 14.5017 2.53258 14.7858C2.52175 14.8408 2.50008 14.8908 2.50008 14.9483V16.6667C2.50008 16.8877 2.58788 17.0996 2.74416 17.2559C2.90044 17.4122 3.1124 17.5 3.33341 17.5H4.16675C4.38776 17.5 4.59972 17.4122 4.756 17.2559C4.91228 17.0996 5.00008 16.8877 5.00008 16.6667V15H15.0001V16.6667C15.0001 16.8877 15.0879 17.0996 15.2442 17.2559C15.4004 17.4122 15.6124 17.5 15.8334 17.5H16.6667C16.8878 17.5 17.0997 17.4122 17.256 17.2559C17.4123 17.0996 17.5001 16.8877 17.5001 16.6667V14.9483C17.5001 14.8908 17.4784 14.84 17.4676 14.7858C17.7288 14.6434 17.9469 14.4335 18.0992 14.178C18.2515 13.9225 18.3324 13.6308 18.3334 13.3333V9.16667C18.3334 8.47583 17.9101 7.8825 17.3101 7.63ZM3.33341 13.3333V9.16667H16.6667L16.6684 13.3333H3.33341ZM6.20091 4.16667H13.7984C14.1576 4.16667 14.4759 4.395 14.5892 4.73667L15.5109 7.5H4.48925L5.41008 4.73667C5.46537 4.57066 5.57151 4.42627 5.71346 4.32397C5.8554 4.22166 6.02594 4.16663 6.20091 4.16667Z" fill="#72767C"/>
<path d="M5.41675 12.5C6.1071 12.5 6.66675 11.9404 6.66675 11.25C6.66675 10.5596 6.1071 10 5.41675 10C4.72639 10 4.16675 10.5596 4.16675 11.25C4.16675 11.9404 4.72639 12.5 5.41675 12.5Z" fill="#72767C"/>
<path d="M14.5835 12.5C15.2739 12.5 15.8335 11.9404 15.8335 11.25C15.8335 10.5596 15.2739 10 14.5835 10C13.8931 10 13.3335 10.5596 13.3335 11.25C13.3335 11.9404 13.8931 12.5 14.5835 12.5Z" fill="#72767C"/>
</svg>
