<svg width="20" height="20" viewBox="0 0 20 20" fill="none" xmlns="http://www.w3.org/2000/svg">
<path fill-rule="evenodd" clip-rule="evenodd" d="M14.5833 12.5007C14.2064 12.5007 13.674 12.5527 13.1198 12.6286C12.8608 12.6641 12.6634 12.8616 12.6279 13.1205C12.552 13.6748 12.4999 14.2072 12.4999 14.584C12.4999 14.9608 12.552 15.4932 12.6279 16.0475C12.6634 16.3064 12.8608 16.5039 13.1198 16.5393C13.674 16.6152 14.2064 16.6673 14.5833 16.6673C14.9601 16.6673 15.4925 16.6152 16.0467 16.5393C16.3057 16.5039 16.5031 16.3064 16.5386 16.0475C16.6145 15.4932 16.6666 14.9608 16.6666 14.584C16.6666 14.2072 16.6145 13.6748 16.5386 13.1205C16.5031 12.8616 16.3057 12.6641 16.0467 12.6286C15.4925 12.5527 14.9601 12.5007 14.5833 12.5007ZM12.8936 10.9774C11.8937 11.1143 11.1136 11.8944 10.9767 12.8943C10.8981 13.4679 10.8333 14.0908 10.8333 14.584C10.8333 15.0772 10.8981 15.7001 10.9767 16.2736C11.1136 17.2735 11.8937 18.0536 12.8936 18.1906C13.4671 18.2691 14.0901 18.334 14.5833 18.334C15.0765 18.334 15.6994 18.2691 16.2729 18.1906C17.2728 18.0536 18.0529 17.2735 18.1898 16.2736C18.2684 15.7001 18.3333 15.0772 18.3333 14.584C18.3333 14.0908 18.2684 13.4679 18.1898 12.8943C18.0529 11.8944 17.2728 11.1143 16.2729 10.9774C15.6994 10.8988 15.0765 10.834 14.5833 10.834C14.0901 10.834 13.4671 10.8988 12.8936 10.9774Z" fill="#72767C"/>
<path fill-rule="evenodd" clip-rule="evenodd" d="M5.41675 12.5007C5.03993 12.5007 4.50752 12.5527 3.95326 12.6286C3.69432 12.6641 3.49687 12.8616 3.46141 13.1205C3.3855 13.6748 3.33341 14.2072 3.33341 14.584C3.33341 14.9608 3.3855 15.4932 3.46141 16.0475C3.49687 16.3064 3.69432 16.5039 3.95326 16.5393C4.50752 16.6152 5.03993 16.6673 5.41675 16.6673C5.79357 16.6673 6.32598 16.6152 6.88024 16.5393C7.13918 16.5039 7.33662 16.3064 7.37209 16.0475C7.44799 15.4932 7.50008 14.9608 7.50008 14.584C7.50008 14.2072 7.44799 13.6748 7.37209 13.1205C7.33662 12.8616 7.13918 12.6641 6.88024 12.6286C6.32598 12.5527 5.79357 12.5007 5.41675 12.5007ZM3.72711 10.9774C2.72719 11.1143 1.9471 11.8944 1.81016 12.8943C1.73161 13.4679 1.66675 14.0908 1.66675 14.584C1.66675 15.0772 1.73161 15.7001 1.81016 16.2736C1.9471 17.2735 2.72719 18.0536 3.72711 18.1906C4.30062 18.2691 4.92355 18.334 5.41675 18.334C5.90995 18.334 6.53288 18.2691 7.10639 18.1906C8.1063 18.0536 8.8864 17.2735 9.02334 16.2736C9.10188 15.7001 9.16675 15.0772 9.16675 14.584C9.16675 14.0908 9.10188 13.4679 9.02334 12.8943C8.8864 11.8944 8.1063 11.1143 7.10639 10.9774C6.53288 10.8988 5.90995 10.834 5.41675 10.834C4.92355 10.834 4.30062 10.8988 3.72711 10.9774Z" fill="#72767C"/>
<path fill-rule="evenodd" clip-rule="evenodd" d="M14.5833 3.33268C14.2064 3.33268 13.674 3.38477 13.1198 3.46068C12.8608 3.49614 12.6634 3.69359 12.6279 3.95252C12.552 4.50679 12.4999 5.0392 12.4999 5.41602C12.4999 5.79283 12.552 6.32524 12.6279 6.87951C12.6634 7.13845 12.8608 7.33589 13.1198 7.37135C13.674 7.44726 14.2064 7.49935 14.5833 7.49935C14.9601 7.49935 15.4925 7.44726 16.0467 7.37135C16.3057 7.33589 16.5031 7.13845 16.5386 6.87951C16.6145 6.32524 16.6666 5.79283 16.6666 5.41602C16.6666 5.0392 16.6145 4.50679 16.5386 3.95252C16.5031 3.69359 16.3057 3.49614 16.0467 3.46068C15.4925 3.38477 14.9601 3.33268 14.5833 3.33268ZM12.8936 1.80943C11.8937 1.94637 11.1136 2.72646 10.9767 3.72638C10.8981 4.29989 10.8333 4.92282 10.8333 5.41602C10.8333 5.90921 10.8981 6.53214 10.9767 7.10565C11.1136 8.10557 11.8937 8.88566 12.8936 9.02261C13.4671 9.10115 14.0901 9.16602 14.5833 9.16602C15.0765 9.16602 15.6994 9.10115 16.2729 9.02261C17.2728 8.88566 18.0529 8.10557 18.1898 7.10565C18.2684 6.53214 18.3333 5.90921 18.3333 5.41602C18.3333 4.92282 18.2684 4.29989 18.1898 3.72638C18.0529 2.72646 17.2728 1.94637 16.2729 1.80943C15.6994 1.73088 15.0765 1.66602 14.5833 1.66602C14.0901 1.66602 13.4671 1.73088 12.8936 1.80943Z" fill="#72767C"/>
<path fill-rule="evenodd" clip-rule="evenodd" d="M5.41675 3.33268C5.03993 3.33268 4.50752 3.38477 3.95326 3.46068C3.69432 3.49614 3.49687 3.69359 3.46141 3.95252C3.3855 4.50679 3.33341 5.0392 3.33341 5.41602C3.33341 5.79283 3.3855 6.32524 3.46141 6.87951C3.49687 7.13845 3.69432 7.33589 3.95326 7.37135C4.50752 7.44726 5.03993 7.49935 5.41675 7.49935C5.79357 7.49935 6.32598 7.44726 6.88024 7.37135C7.13918 7.33589 7.33662 7.13845 7.37209 6.87951C7.44799 6.32524 7.50008 5.79283 7.50008 5.41602C7.50008 5.0392 7.44799 4.50679 7.37209 3.95252C7.33662 3.69359 7.13918 3.49614 6.88024 3.46068C6.32598 3.38477 5.79357 3.33268 5.41675 3.33268ZM3.72711 1.80943C2.72719 1.94637 1.9471 2.72646 1.81016 3.72638C1.73161 4.29989 1.66675 4.92282 1.66675 5.41602C1.66675 5.90921 1.73161 6.53214 1.81016 7.10565C1.9471 8.10557 2.72719 8.88566 3.72711 9.02261C4.30062 9.10115 4.92355 9.16602 5.41675 9.16602C5.90995 9.16602 6.53288 9.10115 7.10639 9.02261C8.1063 8.88566 8.8864 8.10557 9.02334 7.10565C9.10188 6.53214 9.16675 5.90921 9.16675 5.41602C9.16675 4.92282 9.10188 4.29989 9.02334 3.72638C8.8864 2.72646 8.1063 1.94637 7.10639 1.80943C6.53288 1.73088 5.90995 1.66602 5.41675 1.66602C4.92355 1.66602 4.30062 1.73088 3.72711 1.80943Z" fill="#72767C"/>
</svg>
