<svg width="25" height="24" viewBox="0 0 25 24" fill="none" xmlns="http://www.w3.org/2000/svg">
<g clip-path="url(#clip0_2_18378)">
<path d="M21.07 14.8605L21.79 14.1405C22.18 13.7505 22.18 13.1205 21.79 12.7305L21.77 12.7105C21.38 12.3205 20.75 12.3205 20.36 12.7105L17.5 15.5705L8.92998 7.00047L11.79 4.14047C12.18 3.75047 12.18 3.12047 11.79 2.73047L11.77 2.71047C11.38 2.32047 10.75 2.32047 10.36 2.71047L9.63998 3.43047L8.91998 2.71047C8.52998 2.32047 7.88998 2.32047 7.49998 2.71047L6.06998 4.14047L5.34998 3.42047C4.95998 3.03047 4.30998 3.03047 3.91998 3.42047C3.52998 3.81047 3.52998 4.46047 3.91998 4.85047L4.63998 5.57047L3.20998 7.00047C2.81998 7.39047 2.81998 8.02047 3.20998 8.41047L3.92998 9.13047L3.20998 9.86047C2.81998 10.2505 2.81998 10.8805 3.20998 11.2705L3.22998 11.2905C3.61998 11.6805 4.24998 11.6805 4.63998 11.2905L7.49998 8.43047L16.07 17.0005L13.21 19.8605C12.82 20.2505 12.82 20.8805 13.21 21.2705L13.23 21.2905C13.62 21.6805 14.25 21.6805 14.64 21.2905L15.36 20.5705L16.08 21.2905C16.47 21.6805 17.1 21.6805 17.49 21.2905L18.92 19.8605L19.64 20.5805C20.03 20.9705 20.68 20.9705 21.07 20.5805C21.46 20.1905 21.46 19.5405 21.07 19.1505L20.35 18.4305L21.79 17.0005C22.18 16.6105 22.18 15.9805 21.79 15.5905L21.07 14.8605Z" fill="#005819"/>
</g>
<defs>
<clipPath id="clip0_2_18378">
<rect width="24" height="24" fill="white" transform="translate(0.5)"/>
</clipPath>
</defs>
</svg>
