<svg width="25" height="24" viewBox="0 0 25 24" fill="none" xmlns="http://www.w3.org/2000/svg">
<g clip-path="url(#clip0_2_18392)">
<path d="M18.23 12.0205L22.21 8.04055C22.6 7.65055 22.6 7.02055 22.21 6.63055L17.87 2.29055C17.48 1.90055 16.85 1.90055 16.46 2.29055L12.48 6.27055L8.50002 2.29055C8.30002 2.10055 8.05002 2.00055 7.79002 2.00055C7.54002 2.00055 7.28002 2.10055 7.09002 2.29055L2.75002 6.63055C2.36002 7.02055 2.36002 7.65055 2.75002 8.04055L6.73002 12.0205L2.75002 16.0005C2.36002 16.3905 2.36002 17.0205 2.75002 17.4105L7.09002 21.7505C7.48002 22.1405 8.11002 22.1405 8.50002 21.7505L12.48 17.7705L16.46 21.7505C16.66 21.9505 16.91 22.0405 17.17 22.0405C17.43 22.0405 17.68 21.9405 17.88 21.7505L22.22 17.4105C22.61 17.0205 22.61 16.3905 22.22 16.0005L18.23 12.0205ZM12.5 9.00055C13.05 9.00055 13.5 9.45055 13.5 10.0005C13.5 10.5505 13.05 11.0005 12.5 11.0005C11.95 11.0005 11.5 10.5505 11.5 10.0005C11.5 9.45055 11.95 9.00055 12.5 9.00055ZM7.79002 10.9605L4.16002 7.34055L7.79002 3.71055L11.41 7.33055L7.79002 10.9605ZM10.5 13.0005C9.95002 13.0005 9.50002 12.5505 9.50002 12.0005C9.50002 11.4505 9.95002 11.0005 10.5 11.0005C11.05 11.0005 11.5 11.4505 11.5 12.0005C11.5 12.5505 11.05 13.0005 10.5 13.0005ZM12.5 15.0005C11.95 15.0005 11.5 14.5505 11.5 14.0005C11.5 13.4505 11.95 13.0005 12.5 13.0005C13.05 13.0005 13.5 13.4505 13.5 14.0005C13.5 14.5505 13.05 15.0005 12.5 15.0005ZM14.5 11.0005C15.05 11.0005 15.5 11.4505 15.5 12.0005C15.5 12.5505 15.05 13.0005 14.5 13.0005C13.95 13.0005 13.5 12.5505 13.5 12.0005C13.5 11.4505 13.95 11.0005 14.5 11.0005ZM17.16 20.3405L13.53 16.7205L17.16 13.0905L20.78 16.7105L17.16 20.3405Z" fill="#161616"/>
</g>
<defs>
<clipPath id="clip0_2_18392">
<rect width="24" height="24" fill="white" transform="translate(0.5)"/>
</clipPath>
</defs>
</svg>
