<svg width="25" height="24" viewBox="0 0 25 24" fill="none" xmlns="http://www.w3.org/2000/svg">
<g clip-path="url(#clip0_2_18385)">
<path d="M20.5 15H4.5C3.95 15 3.5 15.45 3.5 16C3.5 16.55 3.95 17 4.5 17H20.5C21.05 17 21.5 16.55 21.5 16C21.5 15.45 21.05 15 20.5 15ZM20.5 10H4.5C3.95 10 3.5 10.45 3.5 11V12C3.5 12.55 3.95 13 4.5 13H20.5C21.05 13 21.5 12.55 21.5 12V11C21.5 10.45 21.05 10 20.5 10ZM20.5 4H4.5C3.95 4 3.5 4.45 3.5 5V7C3.5 7.55 3.95 8 4.5 8H20.5C21.05 8 21.5 7.55 21.5 7V5C21.5 4.45 21.05 4 20.5 4ZM21 19H4C3.72 19 3.5 19.22 3.5 19.5C3.5 19.78 3.72 20 4 20H21C21.28 20 21.5 19.78 21.5 19.5C21.5 19.22 21.28 19 21 19Z" fill="#005819"/>
</g>
<defs>
<clipPath id="clip0_2_18385">
<rect width="24" height="24" fill="white" transform="translate(0.5)"/>
</clipPath>
</defs>
</svg>
