<svg width="20" height="20" viewBox="0 0 20 20" fill="none" xmlns="http://www.w3.org/2000/svg">
<path fill-rule="evenodd" clip-rule="evenodd" d="M9.19107 12.4993C9.65098 12.4819 10.0379 12.8407 10.0552 13.3006C10.0944 14.3374 10.1494 15.0942 10.2034 15.6367C10.2566 16.171 10.5792 16.4925 11.0289 16.5475C11.5591 16.6123 12.307 16.6654 13.3334 16.6654C14.3598 16.6654 15.1078 16.6123 15.638 16.5475C16.0874 16.4926 16.4101 16.1709 16.4634 15.6365C16.5637 14.6294 16.6667 12.8894 16.6667 9.9987C16.6667 7.10802 16.5637 5.36804 16.4634 4.36093C16.4101 3.82647 16.0874 3.50483 15.638 3.44989C15.1078 3.38508 14.3598 3.33203 13.3334 3.33203C12.307 3.33203 11.5591 3.38507 11.0289 3.44989C10.5792 3.50485 10.2566 3.82635 10.2034 4.36067C10.1494 4.90324 10.0944 5.65998 10.0552 6.6968C10.0379 7.15671 9.65098 7.51547 9.19107 7.4981C8.73116 7.48074 8.3724 7.09384 8.38976 6.63393C8.42994 5.56973 8.4869 4.77822 8.54495 4.19546C8.667 2.97032 9.52117 1.95512 10.8266 1.79554C11.4343 1.72125 12.2507 1.66536 13.3334 1.66536C14.4161 1.66536 15.2325 1.72126 15.8402 1.79554C17.1458 1.95514 17.9998 2.97082 18.1218 4.19572C18.2293 5.27426 18.3334 7.07243 18.3334 9.9987C18.3334 12.925 18.2293 14.7231 18.1218 15.8017C17.9998 17.0266 17.1458 18.0422 15.8402 18.2019C15.2325 18.2761 14.4161 18.332 13.3334 18.332C12.2507 18.332 11.4343 18.2761 10.8266 18.2019C9.52117 18.0423 8.667 17.0271 8.54495 15.8019C8.4869 15.2192 8.42994 14.4277 8.38976 13.3635C8.3724 12.9036 8.73116 12.5166 9.19107 12.4993Z" fill="#72767C"/>
<path fill-rule="evenodd" clip-rule="evenodd" d="M6.006 12.3274C6.33144 12.6528 6.33144 13.1805 6.006 13.5059C5.68057 13.8314 5.15293 13.8314 4.82749 13.5059L1.91083 10.5893C1.58539 10.2638 1.58539 9.73618 1.91083 9.41074L4.82749 6.49408C5.15293 6.16864 5.68057 6.16864 6.006 6.49408C6.33144 6.81951 6.33144 7.34715 6.006 7.67259L4.51193 9.16667H12.5001C12.9603 9.16667 13.3334 9.53976 13.3334 10C13.3334 10.4602 12.9603 10.8333 12.5001 10.8333L4.51193 10.8333L6.006 12.3274Z" fill="#72767C"/>
</svg>
