<svg width="20" height="20" viewBox="0 0 20 20" fill="none" xmlns="http://www.w3.org/2000/svg">
<path fill-rule="evenodd" clip-rule="evenodd" d="M5.83342 13.2524V15.8306L10.0519 13.3378L10.4929 13.3306C12.2461 13.3019 13.8239 13.1253 15.0037 12.9458C15.7483 12.8325 16.2657 12.3129 16.3781 11.6604C16.5339 10.7554 16.6667 9.60874 16.6667 8.33464C16.6667 7.06054 16.5339 5.91391 16.3781 5.00886C16.2657 4.35637 15.7483 3.83673 15.0037 3.72344C13.7133 3.5271 11.9487 3.33464 10.0001 3.33464C8.05147 3.33464 6.28682 3.5271 4.99643 3.72344C4.25186 3.83673 3.7345 4.35637 3.62211 5.00886C3.46621 5.91391 3.33341 7.06054 3.33341 8.33464C3.33341 9.60874 3.46621 10.7554 3.62211 11.6604C3.71971 12.227 4.11553 12.6812 4.69265 12.8731L5.83342 13.2524ZM1.97963 4.72594C2.22145 3.32203 3.33735 2.29003 4.74573 2.07574C6.09517 1.87041 7.9464 1.66797 10.0001 1.66797C12.0538 1.66797 13.905 1.87041 15.2544 2.07574C16.6628 2.29003 17.7787 3.32203 18.0205 4.72594C18.1891 5.7044 18.3334 6.94735 18.3334 8.33464C18.3334 9.72193 18.1891 10.9649 18.0205 11.9433C17.7787 13.3472 16.6628 14.3792 15.2544 14.5935C14.0199 14.7814 12.3654 14.9668 10.5201 14.997L5.42402 18.0084C4.86851 18.3366 4.16675 17.9362 4.16675 17.2909V14.4546C3.03888 14.0796 2.18721 13.1485 1.97963 11.9433C1.81109 10.9649 1.66675 9.72193 1.66675 8.33464C1.66675 6.94735 1.81109 5.7044 1.97963 4.72594Z" fill="#72767C"/>
<path fill-rule="evenodd" clip-rule="evenodd" d="M5.83333 5.83203C5.3731 5.83203 5 6.20513 5 6.66536C5 7.1256 5.3731 7.4987 5.83333 7.4987H14.1667C14.6269 7.4987 15 7.1256 15 6.66536C15 6.20513 14.6269 5.83203 14.1667 5.83203H5.83333ZM5.83333 9.16536C5.3731 9.16536 5 9.53846 5 9.9987C5 10.4589 5.3731 10.832 5.83333 10.832H9.16667C9.6269 10.832 10 10.4589 10 9.9987C10 9.53846 9.6269 9.16536 9.16667 9.16536H5.83333Z" fill="#72767C"/>
</svg>
