<svg width="20" height="20" viewBox="0 0 20 20" fill="none" xmlns="http://www.w3.org/2000/svg">
<path d="M18.0893 3.0886C18.4148 2.76317 18.4148 2.23553 18.0893 1.91009C17.7639 1.58466 17.2363 1.58466 16.9108 1.91009L6.49416 12.3268C6.16872 12.6522 6.16872 13.1798 6.49416 13.5053C6.8196 13.8307 7.34723 13.8307 7.67267 13.5053L18.0893 3.0886Z" fill="#72767C"/>
<path d="M4.33934 16.8386C4.66477 16.5132 4.66477 15.9855 4.33934 15.6601C4.0139 15.3347 3.48626 15.3347 3.16083 15.6601L1.91083 16.9101C1.58539 17.2355 1.58539 17.7632 1.91083 18.0886C2.23626 18.414 2.7639 18.414 3.08934 18.0886L4.33934 16.8386Z" fill="#72767C"/>
<path fill-rule="evenodd" clip-rule="evenodd" d="M5.20549 16.1812C5.43652 16.4122 5.79454 16.5007 6.04841 16.295C6.42556 15.9895 6.66666 15.5226 6.66666 14.9993C6.66666 14.0789 5.92046 13.3327 4.99999 13.3327C4.47678 13.3327 4.00987 13.5738 3.70431 13.9509C3.49863 14.2048 3.58715 14.5628 3.81818 14.7939L5.20549 16.1812ZM6.01925 18.174C5.3879 18.3765 4.7366 18.0693 4.26776 17.6004L2.39889 15.7316C1.93005 15.2627 1.62283 14.6114 1.82537 13.9801C2.25603 12.6377 3.51454 11.666 4.99999 11.666C6.84094 11.666 8.33332 13.1584 8.33332 14.9993C8.33332 16.4848 7.36166 17.7433 6.01925 18.174Z" fill="#72767C"/>
<path d="M1.91066 3.0886C1.58522 2.76317 1.58522 2.23553 1.91066 1.91009C2.2361 1.58466 2.76374 1.58466 3.08917 1.91009L13.5058 12.3268C13.8313 12.6522 13.8313 13.1798 13.5058 13.5053C13.1804 13.8307 12.6528 13.8307 12.3273 13.5053L1.91066 3.0886Z" fill="#72767C"/>
<path d="M15.6607 16.8386C15.3352 16.5132 15.3352 15.9855 15.6607 15.6601C15.9861 15.3347 16.5137 15.3347 16.8392 15.6601L18.0892 16.9101C18.4146 17.2355 18.4146 17.7632 18.0892 18.0886C17.7637 18.414 17.2361 18.414 16.9107 18.0886L15.6607 16.8386Z" fill="#72767C"/>
<path fill-rule="evenodd" clip-rule="evenodd" d="M14.7945 16.1812C14.5635 16.4122 14.2055 16.5007 13.9516 16.295C13.5744 15.9895 13.3333 15.5226 13.3333 14.9993C13.3333 14.0789 14.0795 13.3327 15 13.3327C15.5232 13.3327 15.9901 13.5738 16.2957 13.9509C16.5014 14.2048 16.4129 14.5628 16.1818 14.7939L14.7945 16.1812ZM13.9808 18.174C14.6121 18.3765 15.2634 18.0693 15.7322 17.6004L17.6011 15.7316C18.07 15.2627 18.3772 14.6114 18.1746 13.9801C17.744 12.6377 16.4855 11.666 15 11.666C13.1591 11.666 11.6667 13.1584 11.6667 14.9993C11.6667 16.4848 12.6383 17.7433 13.9808 18.174Z" fill="#72767C"/>
</svg>
