<svg width="20" height="20" viewBox="0 0 20 20" fill="none" xmlns="http://www.w3.org/2000/svg">
<path fill-rule="evenodd" clip-rule="evenodd" d="M16.6246 5.90998C16.6333 5.25907 16.3893 4.60541 15.8926 4.10875C15.396 3.61208 14.7423 3.36808 14.0914 3.37674C14.0912 3.37674 14.0917 3.37673 14.0914 3.37674C13.7316 3.38163 13.372 3.46372 13.0409 3.62298C12.9222 3.68006 12.8072 3.74705 12.6969 3.82395C12.6544 3.85356 12.5998 3.86032 12.552 3.84049C12.5042 3.82068 12.4703 3.77724 12.4612 3.72631C12.4376 3.59396 12.4036 3.46522 12.3601 3.34096C12.2386 2.99423 12.0428 2.6824 11.7919 2.42455C11.7917 2.42438 11.792 2.42473 11.7919 2.42455C11.3377 1.95816 10.7025 1.66797 10.0001 1.66797C9.29769 1.66797 8.66295 1.95763 8.20881 2.42402C8.20864 2.4242 8.20898 2.42385 8.20881 2.42402C7.95788 2.68188 7.76161 2.99423 7.64011 3.34096C7.59657 3.46522 7.56256 3.59396 7.53897 3.72631C7.52989 3.77724 7.49599 3.82067 7.4482 3.84049C7.40038 3.86032 7.34573 3.85356 7.30326 3.82395C7.193 3.74704 7.07792 3.68006 6.95927 3.62298C6.62818 3.46371 6.26926 3.38164 5.90949 3.37675C5.90925 3.37674 5.90974 3.37675 5.90949 3.37675C5.25858 3.36809 4.60419 3.61208 4.10752 4.10874C3.61086 4.60541 3.36686 5.25906 3.37552 5.90998C3.37552 5.91023 3.37551 5.90974 3.37552 5.90998C3.38041 6.26975 3.46249 6.62939 3.62176 6.96048C3.67883 7.07913 3.74582 7.19421 3.82272 7.30448C3.85234 7.34695 3.8591 7.4016 3.83927 7.44943C3.81945 7.49721 3.77602 7.53112 3.72509 7.54019C3.59274 7.56379 3.46399 7.59779 3.33973 7.64134C2.993 7.76284 2.68118 7.95859 2.42333 8.20952C2.42316 8.20969 2.42351 8.20935 2.42333 8.20952C1.95694 8.66366 1.66675 9.29891 1.66675 10.0013C1.66675 10.7037 1.95641 11.3384 2.42281 11.7926C2.42298 11.7927 2.42263 11.7924 2.42281 11.7926C2.68065 12.0435 2.993 12.2398 3.33972 12.3613C3.46399 12.4048 3.59274 12.4388 3.72509 12.4624C3.77602 12.4715 3.81945 12.5054 3.83927 12.5532C3.8591 12.601 3.85234 12.6557 3.82273 12.6981C3.74582 12.8084 3.67883 12.9235 3.62175 13.0421C3.46249 13.3732 3.38042 13.7321 3.37553 14.0919C3.37552 14.0921 3.37553 14.0916 3.37553 14.0919C3.36687 14.7428 3.61086 15.3972 4.10752 15.8939C4.60419 16.3905 5.25784 16.6345 5.90876 16.6259C5.909 16.6259 5.90851 16.6259 5.90876 16.6259C6.26852 16.621 6.62816 16.5389 6.95924 16.3796C7.0779 16.3226 7.19299 16.2556 7.30326 16.1787C7.34572 16.149 7.40038 16.1423 7.4482 16.1621C7.49599 16.1819 7.5299 16.2254 7.53897 16.2763C7.56257 16.4087 7.59658 16.5374 7.64012 16.6617C7.76162 17.0084 7.95737 17.3202 8.2083 17.5781C8.20847 17.5782 8.20812 17.5779 8.2083 17.5781C8.66244 18.0444 9.29769 18.3346 10.0001 18.3346C10.7025 18.3346 11.3372 18.045 11.7914 17.5786C11.7915 17.5784 11.7912 17.5788 11.7914 17.5786C12.0423 17.3207 12.2385 17.0084 12.36 16.6617C12.4036 16.5374 12.4376 16.4087 12.4612 16.2763C12.4703 16.2254 12.5042 16.1819 12.552 16.1621C12.5998 16.1423 12.6544 16.149 12.6969 16.1787C12.8072 16.2556 12.9223 16.3226 13.0409 16.3796C13.372 16.5389 13.7309 16.621 14.0907 16.6259C14.0909 16.6259 14.0904 16.6259 14.0907 16.6259C14.7416 16.6345 15.396 16.3905 15.8926 15.8939C16.3893 15.3972 16.6333 14.7435 16.6246 14.0926C16.6246 14.0924 16.6247 14.0929 16.6246 14.0926C16.6198 13.7329 16.5377 13.3732 16.3784 13.0421C16.3213 12.9235 16.2543 12.8084 16.1774 12.6981C16.1478 12.6557 16.1411 12.601 16.1609 12.5532C16.1807 12.5054 16.2241 12.4715 16.2751 12.4624C16.4074 12.4388 16.5362 12.4048 16.6604 12.3613C17.0072 12.2398 17.319 12.044 17.5768 11.7931C17.577 11.7929 17.5767 11.7933 17.5768 11.7931C18.0432 11.3389 18.3334 10.7037 18.3334 10.0013C18.3334 9.29891 18.0437 8.66417 17.5774 8.21003C17.5772 8.20986 17.5775 8.2102 17.5774 8.21003C17.3195 7.9591 17.0072 7.76284 16.6604 7.64134C16.5362 7.59779 16.4074 7.56379 16.2751 7.54019C16.2241 7.53112 16.1807 7.49721 16.1609 7.44942C16.1411 7.4016 16.1478 7.34694 16.1774 7.30448C16.2543 7.19421 16.3213 7.07913 16.3784 6.96047C16.5377 6.62938 16.6198 6.26974 16.6246 5.90998C16.6246 5.91023 16.6247 5.90974 16.6246 5.90998ZM14.7141 5.28726C14.4254 4.99857 13.9743 4.965 13.6503 5.19098C13.1587 5.53384 12.5059 5.62565 11.9135 5.38004C11.3228 5.13506 10.9257 4.60951 10.8204 4.01879C10.7511 3.62988 10.4083 3.33464 10.0001 3.33464C9.59182 3.33464 9.2491 3.62988 9.17977 4.01879C9.07448 4.6095 8.67739 5.13506 8.08662 5.38004C7.49431 5.62565 6.84145 5.53384 6.34985 5.19098C6.02583 4.965 5.57472 4.99857 5.28604 5.28726C4.99735 5.57594 4.96378 6.02705 5.18976 6.35107C5.53262 6.84267 5.62443 7.49554 5.37882 8.08784C5.13384 8.67861 4.60828 9.0757 4.01757 9.181C3.62866 9.25032 3.33341 9.59304 3.33341 10.0013C3.33341 10.4096 3.62866 10.7523 4.01757 10.8216C4.60828 10.9269 5.13384 11.324 5.37882 11.9148C5.62443 12.5071 5.53262 13.1599 5.18976 13.6515C4.96378 13.9756 4.99735 14.4267 5.28604 14.7153C5.57472 15.004 6.02583 15.0376 6.34985 14.8116C6.84144 14.4688 7.4943 14.377 8.08661 14.6226C8.67738 14.8675 9.07448 15.3931 9.17978 15.9838C9.2491 16.3727 9.59182 16.668 10.0001 16.668C10.4083 16.668 10.7511 16.3727 10.8204 15.9838C10.9257 15.3931 11.3228 14.8676 11.9135 14.6226C12.5059 14.3769 13.1587 14.4688 13.6503 14.8116C13.9743 15.0376 14.4254 15.004 14.7141 14.7153C15.0028 14.4267 15.0364 13.9756 14.8104 13.6515C14.4675 13.1599 14.3757 12.5071 14.6213 11.9148C14.8663 11.324 15.3919 10.9269 15.9826 10.8216C16.3715 10.7523 16.6667 10.4096 16.6667 10.0013C16.6667 9.59304 16.3715 9.25032 15.9826 9.181C15.3919 9.0757 14.8663 8.67861 14.6213 8.08784C14.3757 7.49553 14.4676 6.84266 14.8104 6.35107C15.0364 6.02705 15.0028 5.57594 14.7141 5.28726Z" fill="#72767C"/>
<path fill-rule="evenodd" clip-rule="evenodd" d="M10.0001 11.668C10.9206 11.668 11.6667 10.9218 11.6667 10.0013C11.6667 9.08083 10.9206 8.33464 10.0001 8.33464C9.07961 8.33464 8.33341 9.08083 8.33341 10.0013C8.33341 10.9218 9.07961 11.668 10.0001 11.668ZM10.0001 13.3346C11.841 13.3346 13.3334 11.8423 13.3334 10.0013C13.3334 8.16035 11.841 6.66797 10.0001 6.66797C8.15913 6.66797 6.66675 8.16035 6.66675 10.0013C6.66675 11.8423 8.15913 13.3346 10.0001 13.3346Z" fill="#72767C"/>
</svg>
