<svg width="20" height="20" viewBox="0 0 20 20" fill="none" xmlns="http://www.w3.org/2000/svg">
<path fill-rule="evenodd" clip-rule="evenodd" d="M14.7851 6.66667H5.21481C4.25344 6.66667 3.49142 7.4778 3.55139 8.4373L3.96806 15.104C4.02296 15.9824 4.75137 16.6667 5.63148 16.6667H14.3685C15.2486 16.6667 15.977 15.9824 16.0319 15.104L16.4486 8.4373C16.5085 7.4778 15.7465 6.66667 14.7851 6.66667ZM5.21481 5C3.29208 5 1.76803 6.62227 1.88797 8.54126L2.30464 15.2079C2.41444 16.9647 3.87127 18.3333 5.63148 18.3333H14.3685C16.1287 18.3333 17.5855 16.9647 17.6953 15.2079L18.112 8.54126C18.2319 6.62227 16.7079 5 14.7851 5H5.21481Z" fill="#72767C"/>
<path fill-rule="evenodd" clip-rule="evenodd" d="M5.83325 5.83268C5.83325 3.5315 7.69873 1.66602 9.99992 1.66602C12.3011 1.66602 14.1666 3.5315 14.1666 5.83268V7.49935C14.1666 7.95958 13.7935 8.33268 13.3333 8.33268C12.873 8.33268 12.4999 7.95958 12.4999 7.49935V5.83268C12.4999 4.45197 11.3806 3.33268 9.99992 3.33268C8.61921 3.33268 7.49992 4.45197 7.49992 5.83268V7.49935C7.49992 7.95958 7.12682 8.33268 6.66659 8.33268C6.20635 8.33268 5.83325 7.95958 5.83325 7.49935V5.83268Z" fill="#72767C"/>
</svg>
