<svg width="20" height="20" viewBox="0 0 20 20" fill="none" xmlns="http://www.w3.org/2000/svg">
<path fill-rule="evenodd" clip-rule="evenodd" d="M8.33325 16.666C8.33325 18.0467 7.21396 19.166 5.83325 19.166C4.45254 19.166 3.33325 18.0467 3.33325 16.666C3.33325 15.2853 4.45254 14.166 5.83325 14.166C7.21396 14.166 8.33325 15.2853 8.33325 16.666ZM6.66658 16.666C6.66658 17.1263 6.29349 17.4993 5.83325 17.4993C5.37301 17.4993 4.99992 17.1263 4.99992 16.666C4.99992 16.2058 5.37301 15.8327 5.83325 15.8327C6.29349 15.8327 6.66658 16.2058 6.66658 16.666Z" fill="#72767C"/>
<path fill-rule="evenodd" clip-rule="evenodd" d="M16.6666 16.666C16.6666 18.0467 15.5473 19.166 14.1666 19.166C12.7859 19.166 11.6666 18.0467 11.6666 16.666C11.6666 15.2853 12.7859 14.166 14.1666 14.166C15.5473 14.166 16.6666 15.2853 16.6666 16.666ZM14.9999 16.666C14.9999 17.1263 14.6268 17.4993 14.1666 17.4993C13.7063 17.4993 13.3333 17.1263 13.3333 16.666C13.3333 16.2058 13.7063 15.8327 14.1666 15.8327C14.6268 15.8327 14.9999 16.2058 14.9999 16.666Z" fill="#72767C"/>
<path fill-rule="evenodd" clip-rule="evenodd" d="M1.75466 2.12685C1.96049 1.7152 2.46105 1.54835 2.8727 1.75418L3.70895 2.1723C4.48334 2.5595 5.00227 3.3198 5.08065 4.18203L5.12052 4.62059C5.14003 4.8352 5.31998 4.99953 5.53548 4.99953H16.5296C17.9842 4.99953 18.991 6.45239 18.4803 7.81437L17.0192 11.7107C16.6533 12.6864 15.7205 13.3329 14.6784 13.3329H6.52204C5.22904 13.3329 4.14937 12.3469 4.03231 11.0592L3.42083 4.33293C3.3947 4.04551 3.22173 3.79208 2.9636 3.66302L2.12734 3.24489C1.71569 3.03906 1.54884 2.5385 1.75466 2.12685ZM5.76275 6.6662C5.51774 6.6662 5.32561 6.87658 5.34779 7.12059L5.69213 10.9083C5.73115 11.3375 6.09104 11.6662 6.52204 11.6662H14.6784C15.0257 11.6662 15.3367 11.4507 15.4586 11.1255L16.9197 7.22917C17.0219 6.95677 16.8205 6.6662 16.5296 6.6662H5.76275Z" fill="#72767C"/>
</svg>
