<svg width="37" height="37" viewBox="0 0 37 37" fill="none" xmlns="http://www.w3.org/2000/svg">
<path d="M32.1271 35.9704H4.86772C3.84878 35.9676 2.87253 35.5608 2.15303 34.8393C1.43352 34.1178 1.02948 33.1405 1.02948 32.1215V10.5586C1.02948 9.53873 1.43425 8.56057 2.1549 7.83893C2.87555 7.11728 3.85316 6.71117 4.87301 6.70976H10.6965C10.8369 6.70976 10.9716 6.76554 11.0709 6.86482C11.1702 6.96411 11.226 7.09877 11.226 7.23917C11.226 7.37958 11.1702 7.51424 11.0709 7.61353C10.9716 7.71281 10.8369 7.76859 10.6965 7.76859H4.87301C4.13397 7.76999 3.42569 8.06455 2.9036 8.58763C2.38152 9.1107 2.0883 9.81955 2.0883 10.5586V32.1215C2.0883 32.8597 2.38079 33.5677 2.90173 34.0906C3.42267 34.6135 4.1296 34.9087 4.86772 34.9115H32.1271C32.8662 34.9101 33.5745 34.6156 34.0965 34.0925C34.6186 33.5694 34.9118 32.8606 34.9118 32.1215V10.5586C34.9104 9.81906 34.616 9.11023 34.0931 8.5873C33.5702 8.06438 32.8614 7.76999 32.1218 7.76859H26.2983C26.1579 7.76859 26.0232 7.71281 25.924 7.61353C25.8247 7.51424 25.7689 7.37958 25.7689 7.23917C25.7689 7.09877 25.8247 6.96411 25.924 6.86482C26.0232 6.76554 26.1579 6.70976 26.2983 6.70976H32.1218C33.1422 6.71116 34.1203 7.11711 34.8418 7.8386C35.5633 8.5601 35.9693 9.53824 35.9707 10.5586V32.1215C35.9693 33.141 35.564 34.1183 34.8437 34.8396C34.1233 35.561 33.1466 35.9676 32.1271 35.9704Z" fill="white"/>
<path d="M30.7561 33.3236H6.24428C5.56324 33.3208 4.91098 33.0487 4.4299 32.5666C3.94883 32.0845 3.67803 31.4317 3.67664 30.7507V11.6918C3.68138 11.1049 3.90606 10.541 4.30632 10.1116C4.70658 9.68222 5.25331 9.41855 5.83852 9.37266C6.42374 9.32677 7.00488 9.50201 7.46717 9.86376C7.92946 10.2255 8.23929 10.7475 8.33546 11.3265C8.71573 13.7499 9.94908 15.9578 11.8132 17.5523C13.6774 19.1467 16.0498 20.0229 18.5028 20.0229C20.9559 20.0229 23.3282 19.1467 25.1924 17.5523C27.0565 15.9578 28.2899 13.7499 28.6702 11.3265C28.7589 10.7405 29.0663 10.2097 29.5305 9.84107C29.9946 9.47242 30.5812 9.29322 31.1722 9.3395C31.7631 9.38578 32.3146 9.65412 32.7157 10.0905C33.1169 10.527 33.3379 11.0991 33.3343 11.6918V30.7507C33.3329 31.4335 33.0606 32.088 32.5773 32.5703C32.0939 33.0527 31.4389 33.3236 30.7561 33.3236ZM6.01664 10.4213C5.67636 10.4227 5.3505 10.5588 5.11038 10.7999C4.87027 11.041 4.73546 11.3674 4.73546 11.7077V30.7665C4.73963 31.1644 4.90027 31.5447 5.18263 31.8251C5.46499 32.1055 5.84637 32.2634 6.24428 32.2648H30.7561C31.1567 32.2634 31.5405 32.1032 31.8233 31.8194C32.1061 31.5356 32.2649 31.1513 32.2649 30.7507V11.6918C32.2575 11.372 32.1316 11.0663 31.9117 10.8339C31.6918 10.6015 31.3935 10.459 31.0746 10.4339C30.7556 10.4089 30.4387 10.5031 30.1852 10.6983C29.9318 10.8935 29.7597 11.1759 29.7025 11.4907C29.279 14.1593 27.9174 16.5893 25.8625 18.3438C23.8076 20.0983 21.1942 21.0622 18.4922 21.0622C15.7902 21.0622 13.1768 20.0983 11.1219 18.3438C9.06705 16.5893 7.70544 14.1593 7.28193 11.4907C7.23179 11.1915 7.07709 10.9198 6.84539 10.7239C6.61369 10.5281 6.32001 10.4208 6.01664 10.4213Z" fill="white"/>
<path d="M18.5 18.4471C16.7775 18.4471 15.0938 17.9364 13.6616 16.9794C12.2294 16.0225 11.1132 14.6624 10.4541 13.071C9.79491 11.4797 9.62245 9.72865 9.95848 8.0393C10.2945 6.34995 11.1239 4.79819 12.3419 3.58024C13.5598 2.36229 15.1116 1.53285 16.801 1.19682C18.4903 0.86079 20.2414 1.03325 21.8327 1.6924C23.424 2.35155 24.7841 3.46779 25.7411 4.89994C26.698 6.3321 27.2088 8.01587 27.2088 9.73831C27.206 12.0472 26.2875 14.2607 24.6549 15.8933C23.0223 17.5259 20.8088 18.4443 18.5 18.4471ZM18.5 2.08831C16.9869 2.08831 15.5079 2.53697 14.2499 3.37756C12.9918 4.21816 12.0113 5.41292 11.4323 6.81078C10.8533 8.20863 10.7018 9.74679 10.997 11.2307C11.2921 12.7147 12.0207 14.0778 13.0906 15.1477C14.1605 16.2175 15.5236 16.9461 17.0075 17.2413C18.4915 17.5365 20.0296 17.385 21.4275 16.806C22.8253 16.227 24.0201 15.2465 24.8607 13.9884C25.7013 12.7304 26.15 11.2513 26.15 9.73831C26.1486 7.70983 25.3421 5.76484 23.9078 4.33049C22.4734 2.89614 20.5284 2.08971 18.5 2.08831Z" fill="white"/>
<path d="M18.4999 5.26429C18.3595 5.26429 18.2248 5.20851 18.1255 5.10923C18.0263 5.00995 17.9705 4.87529 17.9705 4.73488V3.46429C17.9705 3.32388 18.0263 3.18922 18.1255 3.08994C18.2248 2.99065 18.3595 2.93488 18.4999 2.93488C18.6403 2.93488 18.775 2.99065 18.8742 3.08994C18.9735 3.18922 19.0293 3.32388 19.0293 3.46429V4.73488C19.0293 4.87529 18.9735 5.00995 18.8742 5.10923C18.775 5.20851 18.6403 5.26429 18.4999 5.26429Z" fill="white"/>
<path d="M16.0066 5.95293C15.9142 5.95237 15.8236 5.92765 15.7437 5.88121C15.6638 5.83477 15.5975 5.76824 15.5513 5.68823L14.9054 4.56587C14.836 4.44495 14.817 4.3015 14.8527 4.16669C14.8884 4.03188 14.9758 3.91659 15.096 3.84587C15.1561 3.81065 15.2226 3.78764 15.2916 3.77815C15.3606 3.76867 15.4309 3.7729 15.4982 3.79061C15.5656 3.80831 15.6288 3.83914 15.6843 3.88133C15.7397 3.92352 15.7863 3.97624 15.8213 4.03646L16.4672 5.15881C16.5022 5.21924 16.5249 5.28599 16.534 5.35523C16.5431 5.42446 16.5384 5.49481 16.5202 5.56223C16.502 5.62964 16.4706 5.69279 16.4279 5.74803C16.3852 5.80328 16.332 5.84952 16.2713 5.88411C16.1906 5.92984 16.0994 5.95357 16.0066 5.95293Z" fill="white"/>
<path d="M14.1851 7.77413C14.0924 7.77478 14.0011 7.75104 13.9204 7.70531L12.7981 7.05943C12.7364 7.02442 12.6824 6.97737 12.6393 6.9211C12.5962 6.86482 12.5648 6.80046 12.547 6.73183C12.5293 6.66319 12.5254 6.59169 12.5358 6.52155C12.5462 6.45142 12.5706 6.38409 12.6075 6.32355C12.6782 6.20336 12.7935 6.11592 12.9283 6.08023C13.0631 6.04455 13.2066 6.0635 13.3275 6.13296L14.4498 6.77884C14.5709 6.84868 14.6595 6.96358 14.6962 7.09847C14.7329 7.23335 14.7147 7.37728 14.6457 7.49884C14.6004 7.5816 14.5339 7.65076 14.4529 7.69916C14.3719 7.74756 14.2795 7.77345 14.1851 7.77413Z" fill="white"/>
<path d="M13.5182 10.268H12.2265C12.0861 10.268 11.9514 10.2123 11.8521 10.113C11.7528 10.0137 11.6971 9.87903 11.6971 9.73863C11.6971 9.59822 11.7528 9.46356 11.8521 9.36427C11.9514 9.26499 12.0861 9.20921 12.2265 9.20921H13.5182C13.6586 9.20921 13.7933 9.26499 13.8926 9.36427C13.9919 9.46356 14.0476 9.59822 14.0476 9.73863C14.0476 9.87903 13.9919 10.0137 13.8926 10.113C13.7933 10.2123 13.6586 10.268 13.5182 10.268Z" fill="white"/>
<path d="M13.0631 13.4021C12.9475 13.401 12.8356 13.362 12.7442 13.2912C12.6529 13.2205 12.5872 13.1218 12.5572 13.0102C12.5272 12.8986 12.5346 12.7803 12.5781 12.6732C12.6216 12.5662 12.699 12.4764 12.7984 12.4174L13.9207 11.7715C13.9808 11.7363 14.0473 11.7133 14.1163 11.7038C14.1853 11.6943 14.2555 11.6986 14.3229 11.7163C14.3903 11.734 14.4535 11.7648 14.509 11.807C14.5644 11.8492 14.611 11.9019 14.646 11.9621C14.7134 12.0832 14.7306 12.2259 14.694 12.3595C14.6573 12.4931 14.5698 12.607 14.4501 12.6768L13.3278 13.3227C13.2481 13.3722 13.1568 13.3996 13.0631 13.4021Z" fill="white"/>
<path d="M23.9319 13.4013C23.8392 13.4019 23.7479 13.3782 23.6672 13.3325L22.5449 12.676C22.4847 12.641 22.4319 12.5944 22.3898 12.539C22.3476 12.4835 22.3167 12.4203 22.299 12.3529C22.2813 12.2855 22.2771 12.2153 22.2866 12.1463C22.2961 12.0773 22.3191 12.0108 22.3543 11.9507C22.425 11.8305 22.5403 11.7431 22.6751 11.7074C22.8099 11.6717 22.9534 11.6907 23.0743 11.7601L24.1967 12.406C24.3177 12.4759 24.4063 12.5908 24.443 12.7256C24.4797 12.8605 24.4616 13.0045 24.3925 13.126C24.3473 13.2088 24.2807 13.2779 24.1997 13.3263C24.1187 13.3747 24.0263 13.4006 23.9319 13.4013Z" fill="white"/>
<path d="M24.7735 10.268H23.4765C23.3361 10.268 23.2014 10.2123 23.1021 10.113C23.0028 10.0137 22.9471 9.87903 22.9471 9.73863C22.9471 9.59822 23.0028 9.46356 23.1021 9.36427C23.2014 9.26499 23.3361 9.20921 23.4765 9.20921H24.7735C24.9139 9.20921 25.0486 9.26499 25.1479 9.36427C25.2472 9.46356 25.3029 9.59822 25.3029 9.73863C25.3029 9.87903 25.2472 10.0137 25.1479 10.113C25.0486 10.2123 24.9139 10.268 24.7735 10.268Z" fill="white"/>
<path d="M22.8093 7.77396C22.6937 7.77279 22.5818 7.73384 22.4904 7.66307C22.3991 7.5923 22.3334 7.4936 22.3034 7.38202C22.2734 7.27043 22.2808 7.1521 22.3243 7.04508C22.3678 6.93805 22.4452 6.84821 22.5446 6.78926L23.6669 6.14337C23.727 6.10815 23.7935 6.08514 23.8625 6.07565C23.9315 6.06617 24.0018 6.0704 24.0691 6.08811C24.1365 6.10581 24.1997 6.13664 24.2552 6.17883C24.3106 6.22102 24.3572 6.27374 24.3922 6.33396C24.4272 6.39438 24.4499 6.46114 24.459 6.53037C24.4681 6.59961 24.4634 6.66996 24.4452 6.73738C24.427 6.80479 24.3957 6.86794 24.3529 6.92318C24.3102 6.97842 24.257 7.02467 24.1963 7.05926L23.074 7.70514C22.9933 7.75087 22.902 7.77461 22.8093 7.77396Z" fill="white"/>
<path d="M20.988 5.95274C20.8949 5.95311 20.8034 5.92892 20.7226 5.88261C20.6418 5.83629 20.5747 5.7695 20.528 5.68895C20.4813 5.60841 20.4566 5.51697 20.4565 5.42386C20.4564 5.33075 20.4809 5.23926 20.5274 5.15863L21.1786 4.03627C21.2519 3.92104 21.3668 3.83857 21.4994 3.80608C21.6321 3.77359 21.7721 3.79361 21.8903 3.86194C22.0085 3.93028 22.0958 4.04165 22.1338 4.17279C22.1719 4.30393 22.1578 4.44469 22.0945 4.56569L21.4486 5.68804C21.402 5.76883 21.3348 5.83586 21.2539 5.88234C21.173 5.92883 21.0813 5.95311 20.988 5.95274Z" fill="white"/>
<path d="M18.4999 11.2365C18.2036 11.2365 17.9139 11.1486 17.6675 10.984C17.4211 10.8193 17.2291 10.5853 17.1157 10.3116C17.0023 10.0378 16.9726 9.73657 17.0304 9.44594C17.0882 9.15531 17.2309 8.88835 17.4405 8.67881C17.65 8.46928 17.917 8.32659 18.2076 8.26878C18.4982 8.21097 18.7995 8.24064 19.0732 8.35404C19.347 8.46744 19.581 8.65947 19.7456 8.90585C19.9103 9.15224 19.9981 9.44191 19.9981 9.73823C19.9981 10.1356 19.8403 10.5167 19.5593 10.7976C19.2783 11.0786 18.8972 11.2365 18.4999 11.2365ZM18.4999 9.29882C18.3833 9.29882 18.2716 9.34511 18.1892 9.42752C18.1068 9.50992 18.0605 9.62169 18.0605 9.73823C18.0605 9.85477 18.1068 9.96653 18.1892 10.0489C18.2716 10.1313 18.3833 10.1776 18.4999 10.1776C18.6164 10.1776 18.7282 10.1313 18.8106 10.0489C18.893 9.96653 18.9393 9.85477 18.9393 9.73823C18.9393 9.62169 18.893 9.50992 18.8106 9.42752C18.7282 9.34511 18.6164 9.29882 18.4999 9.29882Z" fill="white"/>
<path d="M19.1828 9.57957C19.0787 9.57914 18.9771 9.54805 18.8906 9.49018C18.8041 9.43231 18.7366 9.35023 18.6965 9.2542C18.6564 9.15816 18.6455 9.05244 18.6651 8.95024C18.6847 8.84804 18.7341 8.7539 18.8069 8.67958L20.5646 6.92193C20.6138 6.87231 20.6723 6.83293 20.7369 6.80605C20.8014 6.77917 20.8706 6.76534 20.9405 6.76534C21.0103 6.76534 21.0795 6.77917 21.144 6.80605C21.2086 6.83293 21.2671 6.87231 21.3163 6.92193C21.4149 7.02113 21.4703 7.15531 21.4703 7.29517C21.4703 7.43503 21.4149 7.56921 21.3163 7.6684L19.5587 9.42604C19.5092 9.47511 19.4505 9.51393 19.386 9.54028C19.3215 9.56662 19.2525 9.57998 19.1828 9.57957Z" fill="white"/>
</svg>
