<svg width="42" height="42" viewBox="0 0 42 42" fill="none" xmlns="http://www.w3.org/2000/svg">
<path d="M30.8613 29.5092H11.9876C11.4295 29.5092 10.9766 29.0562 10.9766 28.4981C10.9766 27.9393 11.4295 27.4863 11.9876 27.4863H30.8613C31.4194 27.4863 31.8724 27.9393 31.8724 28.4981C31.8724 29.0563 31.4195 29.5092 30.8613 29.5092Z" fill="black"/>
<path d="M30.337 15.496C30.337 16.8319 29.2544 17.9145 27.9191 17.9145C26.5838 17.9145 25.502 16.8319 25.502 15.496C25.502 14.1607 26.5838 13.0781 27.9191 13.0781C29.2544 13.0781 30.337 14.1607 30.337 15.496Z" fill="black"/>
<path d="M16.4359 15.496C16.4359 16.8319 15.3534 17.9145 14.0187 17.9145C12.6834 17.9145 11.6016 16.8319 11.6016 15.496C11.6016 14.1607 12.6834 13.0781 14.0187 13.0781C15.354 13.0781 16.4359 14.1607 16.4359 15.496Z" fill="black"/>
<path d="M21.0008 42C9.42377 42 0.00585938 32.5794 0.00585938 21.0004C0.00645995 9.42062 9.42445 0 21.0008 0C32.5771 0 41.9957 9.42062 41.9957 21.0003C41.9957 32.5793 32.5771 42 21.0008 42ZM21.0008 2.02289C10.5393 2.02289 2.02799 10.5363 2.02799 21.0004C2.02799 31.4645 10.5393 39.9778 21.0008 39.9778C31.4628 39.9778 39.9735 31.4644 39.9735 21.0003C39.9735 10.5362 31.4628 2.02289 21.0008 2.02289Z" fill="black"/>
</svg>
